<svg xmlns="http://www.w3.org/2000/svg" viewBox="0 0 742.6 1000" width="742.6" height="1000" role="img" aria-labelledby="atr-stacked-ksu-twotone-reverse-title"><title id="atr-stacked-ksu-twotone-reverse-title">ATR Lab logo: Advanced Telerobotics Research, Kent State University</title><path fill="#FFFFFF" fill-rule="evenodd" d="M455.1 742.5c-0.7-0.1-1.8-0.4-2.6-0.7-0.8-0.3-1.7-0.6-2-0.6-1.5-0.4-5.4-3-7.4-5-1-1-2.9-3.7-3.4-4.8-0.3-0.6-0.6-1.1-0.7-1.2-0.1-0.1-0.3-0.6-0.5-1.1-0.2-0.5-0.5-1.2-0.6-1.5-0.2-0.4-0.4-1.2-0.5-1.7-0.1-0.6-0.4-1.7-0.6-2.5-0.7-3-0.8-10.4-0.1-13.2 0.2-1 0.5-2.4 0.9-3.9 0.3-1.1 0.8-2.6 1.2-3.3 0.2-0.3 0.5-0.9 0.8-1.5 0.3-0.6 0.7-1.2 0.8-1.3 0.1-0.2 0.5-0.7 0.8-1.2 1.1-1.6 3.8-4.2 5.4-5.3 2-1.2 3.4-1.9 4.2-2.1 0.6-0.1 1.2-0.3 1.4-0.5 0.2-0.1 0.8-0.3 1.3-0.4 4.2-0.9 9.7-0.8 13 0.2 3 0.9 4.9 1.7 5.8 2.4 0.2 0.2 0.6 0.5 1 0.7 0.3 0.1 0.6 0.3 0.7 0.4 0 0.1 0.4 0.4 0.8 0.7 1.8 1.5 3.4 3.8 4.7 6.5 0.8 1.8 1.2 4.2 0.9 4.8-0.3 0.6-0.9 0.7-4.1 0.6-3.4 0-3.7-0.1-3.9-0.9-0.1-0.3-0.3-1-0.5-1.6-0.2-0.5-0.4-1.3-0.6-1.7-0.5-0.9-2.2-2.8-3-3.2-0.3-0.1-0.8-0.4-1-0.6-0.6-0.5-2.8-1.3-4.1-1.5-0.6-0.1-1.9-0.3-2.8-0.3-1.5-0.1-1.9-0.1-3.5 0.2-1 0.2-2 0.5-2.2 0.6-0.2 0.1-0.8 0.3-1.3 0.5-0.5 0.2-1 0.4-1.1 0.5 0 0-0.4 0.3-0.8 0.6-1.2 0.7-2.1 1.6-2.8 2.4-0.9 1.2-1.8 2.5-2.1 3.3-0.1 0.4-0.4 1-0.5 1.2-0.6 0.9-1.3 4.7-1.6 7.9-0.1 2.1 0 4.5 0.4 6.8 0.1 0.7 0.2 1.6 0.3 2 0.1 1.3 0.4 2.5 0.9 3.1 0.2 0.4 0.4 0.9 0.5 1.2 0.3 0.9 2.2 3.6 3.2 4.5 1.4 1.2 3.2 2.3 4.3 2.6 0.5 0.1 1.3 0.4 1.8 0.6 0.8 0.4 0.9 0.4 3.8 0.4 2.8 0 3 0 3.9-0.4 0.5-0.2 1.2-0.4 1.5-0.4 0.3-0.1 1.2-0.5 1.9-0.9 1.1-0.5 1.6-0.9 2.5-1.8 0.9-1 1.2-1.4 1.8-2.7 0.4-1 0.7-2 0.8-2.7 0.2-1.2 0.4-1.6 0.9-1.8 0.4-0.1 6.6-0.1 7 0.1 0.5 0.2 0.6 1.1 0.3 2.6-0.1 0.5-0.2 1.1-0.2 1.4 0 0.3-0.1 0.8-0.3 1.1-0.2 0.3-0.5 1-0.7 1.5-0.8 2.1-2.1 4-3.6 5.5-2.3 2.1-4.5 3.5-7 4.3-0.7 0.2-1.7 0.5-2.3 0.7-0.6 0.2-1.7 0.4-2.3 0.5-1.8 0.2-7.4 0.1-8.8-0.1zM185.6 741.6c-0.6-0.2-0.9-0.6-1.4-2.1-0.3-0.8-0.7-1.9-0.9-2.5-0.2-0.6-0.5-1.5-0.7-2-0.3-0.4-0.4-0.8-0.4-0.9 0-0.1-0.2-0.6-0.4-1.1-0.2-0.4-0.6-1.4-0.8-2.1-0.3-0.7-0.7-1.7-0.9-2.2-0.2-0.6-0.5-1.2-0.8-1.5l-0.4-0.4-9.2 0-9.3-0.1-0.4 0.5c-0.2 0.2-0.5 0.6-0.6 1 0 0.3-0.2 0.8-0.4 1.1-0.1 0.3-0.6 1.7-1.1 3.1-0.5 1.5-1 2.9-1.2 3.1-0.1 0.3-0.4 1.1-0.6 1.8-0.4 1.5-1.2 3.5-1.7 4l-0.3 0.4-3.6 0c-2.6 0-3.7 0-3.8-0.1-0.3-0.3-0.3-0.8 0.1-1.8 0.2-0.6 0.5-1.4 0.7-1.9 0.2-0.5 0.6-1.4 0.8-2 0.7-1.7 1.7-4.4 2.1-5.7 0.2-0.7 0.5-1.4 0.7-1.6 0.1-0.3 0.4-1 0.6-1.6 0.5-1.6 1.4-3.7 1.6-4.2 0.1-0.2 0.4-0.9 0.6-1.6 0.3-0.7 0.8-2.1 1.2-3.1 0.4-1 0.8-2.3 1-2.8 0.1-0.5 0.4-1.2 0.6-1.5 0.1-0.3 0.5-1.1 0.7-1.9 0.3-0.7 0.8-2 1.1-2.9 0.4-0.8 0.9-2.1 1.1-2.8 0.2-0.7 0.5-1.5 0.7-1.9 0.3-0.7 0.9-2.1 1.3-3.5 0.2-0.6 0.5-1.2 0.6-1.4 0.1-0.2 0.5-1 0.8-1.9 0.8-2.5 1.9-5.4 2.2-5.9 0.4-0.7 0.8-0.8 4.5-0.7l3.3 0.1 0.4 0.4c0.4 0.4 1.2 2.1 2 4.4 0.2 0.6 0.5 1.3 0.7 1.5 0.1 0.2 0.3 0.6 0.4 0.8 0.1 0.6 1 3 1.5 4.1 0.2 0.4 0.6 1.2 0.8 1.8 0.1 0.6 0.5 1.5 0.7 1.9 0.2 0.5 0.5 1.2 0.7 1.7 0.1 0.4 0.6 1.4 0.9 2.3 0.4 0.8 0.9 2 1.1 2.5 0.5 1.3 0.9 2.4 1.4 3.6 0.2 0.5 0.6 1.4 0.8 1.9 0.1 0.6 0.5 1.3 0.6 1.6 0.2 0.3 0.5 1 0.7 1.6 0.2 0.6 0.7 1.8 1.1 2.7 0.5 1 0.9 2.1 1 2.5 0.1 0.3 0.4 1.1 0.7 1.6 0.2 0.5 0.6 1.3 0.7 1.9 0.2 0.5 0.7 1.6 1 2.4 0.4 0.8 0.8 2 1.1 2.8 0.3 0.7 0.6 1.5 0.7 1.7 0.1 0.2 0.4 0.7 0.6 1.2 0.1 0.5 0.4 1.3 0.6 1.8 0.5 1 0.5 1.5 0.2 1.8-0.2 0.2-0.9 0.2-3.9 0.2-2.4 0.1-3.7 0-3.9-0.1zM208.3 741.7c-0.1-0.1-0.4-0.4-0.5-0.6-0.2-0.4-0.2-3.1-0.2-24.9 0-26.1 0-24.9 0.7-25.3 0.1 0 4.4 0 9.6 0 7.6 0.1 9.6 0.1 10.5 0.3 0.6 0.1 1.7 0.3 2.3 0.3 1.9 0.2 3.4 0.5 5.3 1.3 3.3 1.2 4.8 2.1 7 4.1 0.4 0.4 0.8 0.7 0.9 0.8 0.5 0.4 2.5 3.2 3 4.2 1.5 3 2.2 5.5 2.8 9.5 0.1 1.2 0.2 7.7 0 8.8-0.4 3.4-0.9 5.9-1.3 6.8-0.2 0.5-0.5 1.2-0.6 1.5-0.2 0.9-1.6 3.5-2.2 4.3-1.3 1.7-1.7 2.3-2.7 3.1-1 0.9-1.3 1.1-2.4 1.8-0.3 0.2-0.8 0.5-1.2 0.8-0.4 0.3-0.9 0.6-1.1 0.6-0.2 0.1-0.9 0.4-1.5 0.7-1.8 0.7-4.1 1.3-7 1.6-2.3 0.3-3.5 0.3-11.8 0.4-5.2 0-9.4-0.1-9.6-0.1zM321.3 741.7c-1.6 0-3-0.1-3.1-0.2-0.3-0.2-0.4-0.8-0.1-1.6 0.5-1 1.2-2.7 1.4-3.2 0.1-0.2 0.3-0.9 0.5-1.4 0.1-0.6 0.4-1.4 0.6-1.7 0.2-0.4 0.6-1.4 0.9-2.3 0.6-1.6 1.5-4 2.2-5.8 0.2-0.5 0.5-1.3 0.7-1.9 0.2-0.5 0.5-1.1 0.6-1.4 0.2-0.3 0.5-1.1 0.6-1.7 0.2-0.5 0.5-1.3 0.6-1.6 0.2-0.3 0.5-1.1 0.7-1.7 0.5-1.5 1.2-3.3 1.5-4 0.2-0.4 0.4-1 0.6-1.4 0.1-0.4 0.3-1 0.5-1.3 0.1-0.3 0.5-1.2 0.7-1.9 0.3-0.8 0.7-2.1 1.1-2.9 0.3-0.8 0.7-2 1-2.6 0.2-0.6 0.5-1.4 0.6-1.7 0.2-0.3 0.5-1.1 0.7-1.8 0.2-0.7 0.5-1.6 0.7-1.9 0.5-0.9 1.3-3 1.6-4.2 0.3-1.1 1-2.2 1.4-2.4 0.1-0.1 1.8-0.2 3.7-0.2 3.2-0.1 3.4-0.1 3.7 0.2 0.6 0.5 1.2 1.8 2.4 5.2 0.2 0.5 0.4 1.2 0.5 1.3 0.3 0.5 1.3 2.8 1.8 4.2 0.2 0.5 0.7 1.7 1 2.6 0.4 0.8 0.9 2.1 1.1 2.7 0.2 0.7 0.5 1.4 0.7 1.6 0.1 0.3 0.4 0.9 0.5 1.3 0.2 0.5 0.6 1.6 1 2.4 0.3 0.9 0.9 2.2 1.2 3 0.2 0.8 0.6 1.7 0.8 2 0.2 0.4 0.5 1.2 0.7 1.8 0.2 0.6 0.7 1.8 1.1 2.7 0.3 0.8 0.8 2 1 2.5 0.2 0.6 0.7 1.7 1.1 2.6 0.4 0.9 0.8 2 0.9 2.4 0.2 0.4 0.5 1.1 0.7 1.4 0.2 0.4 0.4 1 0.6 1.5 0.3 1 0.9 2.7 1.5 3.7 0.2 0.3 0.5 1.1 0.6 1.7 0.2 0.5 0.5 1.3 0.8 1.8 0.5 0.9 0.7 1.7 0.3 2-0.2 0.2-0.8 0.2-4 0.3-4.7 0-4.4 0.1-5.5-2.9-0.4-1-0.8-2.2-1.1-2.8-0.2-0.5-0.6-1.5-0.9-2.3-0.2-0.7-0.8-2.2-1.2-3.2-0.4-1.1-0.8-2.3-0.9-2.7-0.2-0.7-0.3-0.8-0.8-1-0.3-0.1-2.9-0.1-9.6-0.1-8.2 0-9.1 0-9.4 0.2-0.4 0.3-0.9 1.4-1.3 2.9-0.2 0.6-0.5 1.5-0.7 1.9-0.2 0.5-0.7 1.8-1.1 2.9-0.3 1.2-0.8 2.5-1 3-0.3 0.5-0.6 1.4-0.7 2-0.2 0.6-0.4 1.2-0.5 1.4-0.3 0.4-1.2 0.8-1.7 0.7-0.2 0-1.6 0-3.3-0.1zM379.6 741.7c-0.9-0.3-0.9 1.5-0.9-25.4 0-19.1 0.1-24.6 0.2-24.8 0.3-0.6 0.9-0.7 4.3-0.6l3.1 0.1 0.5 0.4c0.2 0.2 0.6 0.7 0.8 1.1 0.2 0.4 0.6 1 0.8 1.3 0.4 0.5 1.2 1.7 3.3 4.9 1.5 2.2 2.4 3.6 3.2 4.8 0.4 0.6 1 1.4 1.2 1.8 0.3 0.3 0.6 0.9 0.8 1.2 0.2 0.3 0.7 1.1 1.1 1.7 0.4 0.5 0.9 1.2 1 1.5 0.1 0.3 0.4 0.8 0.7 1.1 0.3 0.4 0.8 1.1 1.1 1.6 0.4 0.6 0.8 1.3 1.1 1.6 0.5 0.9 6 9.1 6.5 10 0.3 0.4 0.7 1.1 1 1.5 0.9 1.5 1.3 1.8 1.7 1.5 0.2-0.2 0.2-2 0.2-17.8 0-12.3 0.1-17.7 0.2-17.9 0-0.1 0.3-0.3 0.4-0.3 0.5-0.2 6-0.1 6.4 0 0.1 0.1 0.3 0.3 0.4 0.5 0.2 0.4 0.2 49.5 0 49.7-0.4 0.5-0.8 0.5-3.9 0.5-3.4 0-3.8-0.1-4.2-0.7-1.2-1.6-2.4-3.4-2.7-3.8-0.1-0.3-0.5-1-0.9-1.5-0.3-0.4-0.8-1.2-1-1.6-0.3-0.4-0.5-0.9-0.6-1-0.3-0.2-2.2-3-3-4.2-0.2-0.5-0.9-1.5-1.4-2.2-0.5-0.8-1-1.6-1.1-1.7-0.1-0.2-0.8-1.2-1.6-2.4-0.7-1.1-1.4-2.2-1.6-2.5-0.1-0.3-0.4-0.6-0.5-0.8-0.2-0.2-0.8-1-1.3-1.9-0.5-0.8-1.3-1.9-1.7-2.5-0.4-0.6-0.9-1.4-1.1-1.8-0.3-0.3-0.7-1-1-1.4-0.3-0.5-0.7-1.1-0.9-1.4-0.2-0.4-0.5-0.8-0.7-1-0.2-0.2-0.7-1-1.1-1.7-0.8-1.3-1.3-1.8-1.7-1.5-0.1 0.1-0.1 4.7-0.1 17.4 0 12.5 0 17.3-0.1 17.6-0.1 0.2-0.3 0.4-0.4 0.4-0.3 0.2-6 0.3-6.5 0.2zM281.8 741.4c-0.3-0.3-0.5-0.6-0.6-1.1-0.1-0.3-0.3-0.8-0.4-0.9-0.2-0.4-1.5-3.8-1.8-4.6-0.1-0.4-0.3-0.8-0.4-1-0.2-0.2-0.4-0.9-0.6-1.4-0.5-1.5-1.2-3.3-1.4-3.8-0.1-0.2-0.5-1.1-0.8-1.9-0.3-0.9-0.7-2-1-2.6-0.2-0.6-0.6-1.6-0.8-2.1-0.2-0.6-0.6-1.6-0.9-2.2-0.2-0.7-0.6-1.7-0.8-2.4-0.3-0.6-0.7-1.8-1.1-2.6-0.3-0.8-0.7-1.9-0.9-2.4-0.2-0.6-0.4-1.2-0.5-1.4-0.1-0.2-0.4-0.8-0.6-1.5-1-2.7-1.3-3.5-1.7-4.3-0.2-0.4-0.5-1.2-0.6-1.6-0.1-0.4-0.4-1.3-0.7-2-0.3-0.6-0.8-1.8-1.1-2.6-0.2-0.8-0.7-1.9-1-2.6-0.3-0.7-0.6-1.5-0.7-2-0.1-0.4-0.4-1-0.6-1.3-0.4-0.7-0.6-1.8-0.2-2.1 0.2-0.1 0.9-0.1 3.7-0.1 2 0 3.7 0 3.8 0.1 0.4 0.1 0.9 1 1.2 2 0.2 0.4 0.4 1.1 0.6 1.4 0.2 0.4 0.5 1.1 0.6 1.7 0.1 0.5 0.4 1.2 0.6 1.6 0.1 0.3 0.8 2 1.4 3.6 1.9 5.5 3 8.7 3.3 9.1 0.1 0.2 0.3 0.8 0.5 1.4 0.2 0.6 0.6 1.8 1 2.7 0.3 1 0.8 2.3 1.1 3 0.2 0.7 0.7 2.1 1.1 3.1 0.7 1.8 1.1 3.1 2.7 7.6 1.4 3.7 1.4 3.7 2.8-0.2 0.4-1.1 0.9-2.6 1.2-3.4 0.3-0.9 0.6-1.8 0.8-2 0.1-0.2 0.3-0.9 0.5-1.5 0.2-0.6 0.7-1.8 1-2.7 0.3-0.9 0.8-2.2 1-2.9 0.3-0.8 0.6-1.6 0.8-1.9 0.1-0.4 0.4-1.1 0.6-1.6 0.1-0.5 0.6-2 1.1-3.2 0.5-1.2 1-2.7 1.3-3.4 0.2-0.6 0.6-1.9 0.9-2.7 0.3-0.9 0.8-2.1 1.1-2.8 0.2-0.7 0.5-1.5 0.7-1.8 0.1-0.3 0.4-1 0.5-1.7 0.2-0.6 0.4-1.2 0.5-1.3 0.1-0.2 0.3-0.8 0.5-1.3 0.5-1.4 1.1-2.6 1.4-2.8 0.4-0.2 7-0.2 7.5-0.1 0.6 0.3 0.6 1.4-0.1 2.2-0.2 0.2-0.4 0.7-0.5 1.1 0 0.3-0.4 1.4-0.8 2.2-0.4 0.9-0.7 1.8-0.8 2 0 0.2-0.4 1.4-0.9 2.5-0.5 1.1-1 2.5-1.2 3-0.1 0.5-0.6 1.6-0.9 2.6-0.4 0.9-0.9 2.2-1.1 2.7-0.2 0.6-0.5 1.4-0.7 1.9-0.3 0.4-0.5 1.1-0.6 1.5-0.1 0.3-0.5 1.4-0.9 2.2-0.3 0.9-0.9 2.3-1.2 3.2-0.4 1-0.8 2.1-1 2.6-0.3 0.5-0.4 0.9-0.4 1 0 0.3-0.5 1.4-1.3 3.4-0.3 0.7-0.7 1.8-0.9 2.4-0.1 0.6-0.4 1.4-0.6 1.7-0.4 0.5-1.2 2.7-1.4 3.4-0.1 0.3-0.3 1-0.6 1.5-0.2 0.5-0.6 1.3-0.7 1.9-0.2 0.5-0.5 1.2-0.6 1.6-0.2 0.3-0.5 1.3-0.9 2-0.3 0.8-0.7 1.6-0.9 1.8l-0.4 0.4-3.4 0-3.4 0-0.4-0.3zM498.5 741.4c-0.2-0.1-0.3-0.4-0.3-0.6 0-0.1 0-11.3 0-24.7 0-25.4 0-24.9 0.5-25.1 0.1-0.1 8.2-0.1 18-0.1l17.7 0 0.3 0.3c0.3 0.4 0.3 0.4 0.4 3.2 0 2.9-0.1 3.3-0.7 3.6-0.1 0.1-4.6 0.1-13.9 0.1-13.4 0-13.6 0-13.9 0.3-0.1 0.1-0.2 0.4-0.2 0.6-0.1 0.2-0.1 3-0.1 6.3 0 5.3 0.1 6.1 0.3 6.4l0.2 0.4 12.9 0 12.9 0 0.3 0.3c0.3 0.3 0.3 0.5 0.3 3.1 0 1.5 0 2.9-0.1 3.1 0 0.1-0.2 0.3-0.4 0.4-0.2 0.1-3.5 0.2-13 0.2-7-0.1-12.8 0-12.9 0-0.4 0.4-0.5 0.7-0.5 7.9 0 5.8 0.1 7.1 0.2 7.2 0.2 0.2 2.6 0.2 14.4 0.2 10.3 0 14.3 0.1 14.7 0.2 0.2 0.1 0.5 0.3 0.6 0.4 0.1 0.2 0.2 3.5 0.1 5.6 0 0.2-0.2 0.5-0.4 0.7l-0.3 0.3-18.4 0c-18.3 0-18.4 0-18.7-0.3zM554.4 741.4l-0.4-0.4 0-24.7 0-24.7 0.4-0.4 0.3-0.3 8.2 0c8 0 9.2 0 12.8 0.5 4.2 0.5 4.5 0.6 7.2 1.7 1.5 0.6 2.9 1.2 3.3 1.4 0.3 0.3 0.7 0.5 0.9 0.6 0.9 0.6 2 1.6 3 2.6 1.2 1.1 2.9 3.7 3.3 4.7 0.1 0.4 0.4 1 0.6 1.4 0.3 0.4 0.5 1.1 0.6 1.5 0.1 0.4 0.3 0.9 0.4 1.1 0.2 0.6 0.7 3.1 1 5.4 0.1 1.6 0.2 2.8 0.1 5.5-0.1 3.9-0.5 6.6-1.2 9-0.3 0.7-0.4 1.4-0.4 1.5 0 0.1-0.3 0.7-0.6 1.3-0.3 0.6-0.6 1.2-0.6 1.2 0 0.2-1.4 2.5-2.1 3.4-0.6 0.9-2.7 2.9-3.1 3.2-0.3 0.1-1 0.6-1.7 1.1-0.7 0.5-1.7 1-2.2 1.2-0.4 0.1-1 0.4-1.3 0.6-0.9 0.4-2.9 1-4.2 1.3-2.6 0.5-4 0.5-13.9 0.6l-10 0-0.4-0.3zM228.8 734.4c1.8-0.2 3.3-0.7 5.2-1.5 2.1-0.9 3.9-2.5 4.8-4.2 0.2-0.4 0.4-0.9 0.6-1.1 0.5-0.7 1.3-3.3 1.5-4.6 0.1-0.7 0.3-1.7 0.5-2.2 0.5-1.9 0.5-6.8 0-8.8-0.1-0.5-0.4-1.8-0.6-2.8-0.3-1.9-0.9-3.6-1.5-4.4-0.2-0.2-0.5-0.7-0.7-1.1-0.7-1.3-3.6-3.8-4.3-3.8-0.1 0-0.7-0.2-1.3-0.4-2.1-1-4.6-1.3-11.2-1.4-5.2 0-5.4 0-5.7 0.6-0.2 0.3-0.3 34.9-0.1 35.3 0.2 0.6 0.7 0.7 6.1 0.6 2.9-0.1 5.9-0.2 6.7-0.2zM574.5 734.4c2.6-0.2 6.1-1.4 7.8-2.6 1.8-1.3 3.3-3.6 4.4-6.6 0.6-1.7 0.8-3 1.1-6.1 0.2-2.9 0.1-6-0.3-8.8-0.3-2-1.7-5.5-2.8-6.9-1.2-1.6-3.1-3.1-4.9-3.8-0.6-0.2-1.3-0.5-1.6-0.6-0.3-0.1-0.7-0.2-0.9-0.2-0.2 0-0.6-0.1-0.9-0.1-0.8-0.3-6.5-0.6-9.9-0.6-3.4 0-4.1 0.1-4.3 0.7-0.1 0.4-0.2 34.8 0 35.1 0.2 0.7 0.6 0.7 6.1 0.7 2.8 0 5.6-0.1 6.2-0.2zM176.3 719.7c0.3-0.3 0.3-0.8-0.2-1.8-0.2-0.5-0.5-1.3-0.7-1.9-0.1-0.5-0.4-1.2-0.6-1.5-0.2-0.4-0.4-1-0.5-1.4-0.1-0.4-0.3-0.9-0.5-1.2-0.1-0.2-0.3-0.9-0.4-1.3-0.2-0.5-0.5-1.1-0.7-1.5-0.2-0.4-0.5-1.2-0.7-2-0.2-0.7-0.6-1.8-0.9-2.4-0.2-0.7-0.6-1.5-0.7-2-0.3-1.1-0.6-1.5-1-1.5-0.4 0-0.7 0.5-0.9 1.5-0.1 0.4-0.3 1-0.4 1.3-0.2 0.3-0.4 0.9-0.6 1.4-0.1 0.5-0.6 1.8-1 2.9-0.4 1.1-0.9 2.5-1.1 3.1-0.2 0.5-0.5 1.4-0.7 1.9-0.1 0.5-0.7 2-1.1 3.3-0.5 1.2-0.9 2.4-0.9 2.6 0 0.2 0.1 0.4 0.3 0.5 0.2 0.2 0.9 0.3 6 0.3 6.6 0.1 6.9 0.1 7.3-0.3zM347.8 719.8c0.4-0.2 0.3-1-0.3-2.4-0.4-0.7-0.9-1.9-1.1-2.7-0.3-0.8-0.7-1.8-0.9-2.2-0.2-0.5-0.5-1.4-0.7-2.1-0.4-1.2-1.2-3.1-1.7-4.1-0.1-0.3-0.3-0.9-0.4-1.3-0.2-0.9-1.2-3.4-1.6-3.6-0.5-0.3-0.9 0.2-1.7 3.1-0.3 1-0.7 2.1-0.9 2.4-0.1 0.2-0.6 1.5-1 2.9-0.5 1.3-1 2.6-1.1 2.9-0.2 0.3-0.4 1.1-0.6 1.7-0.2 0.6-0.4 1.5-0.6 1.9-0.2 0.4-0.5 1.2-0.7 1.6-0.2 0.5-0.4 1-0.4 1.1 0 0.4 0.3 0.8 0.6 1 0.4 0.1 12.8 0 13.1-0.2zM472.8 832.1c-3.7-0.1-6.2-0.7-9.2-2-3.2-1.3-5.5-2.9-7.9-5.2-1.5-1.6-2.2-2.5-3.6-4.5-1-1.4-2.2-3.7-2.2-4 0-0.1-0.2-0.6-0.5-1.1-0.5-1.1-0.8-2.1-1.6-5.8l-0.5-2.4 0-4.3c0-4.5 0.1-5.3 0.8-7.9 0.1-0.5 0.3-1.3 0.3-1.7 0.2-1.5 2.1-5.8 3.4-7.8 1.4-2.3 4.8-5.9 6.7-7.3 1.9-1.3 4.9-2.9 5.8-3.1 0.3-0.1 0.8-0.2 1.2-0.4 1.8-0.9 5.7-1.4 9.4-1.4 3.7 0 7.1 0.6 9.2 1.5 0.5 0.2 1 0.4 1.2 0.5 1 0.2 4.6 2.2 5.3 2.8 0.2 0.2 0.5 0.4 0.7 0.5 0.3 0.2 1.1 0.9 1.9 1.7 3.9 3.8 6.1 7.5 7.7 13 0.5 1.9 0.8 3.6 1 6.7 0.4 7.1-0.6 12.7-3.1 17.8-0.4 0.8-0.9 1.7-1.2 2.2-0.3 0.5-0.7 1.1-0.9 1.4-0.9 1.3-3.6 4.2-4.8 5.1-2.2 1.8-5.5 3.7-7 4.1-0.2 0.1-0.7 0.2-1.1 0.4-1.3 0.6-4.8 1.1-7.7 1.3-0.6 0-2 0-3.3-0.1zM344.2 831.9c-2-0.3-4.2-0.8-5.6-1.4-0.6-0.3-1.5-0.7-2-0.8-0.4-0.2-1-0.6-1.4-0.8-0.3-0.2-0.8-0.5-1.1-0.7-0.2-0.1-0.9-0.6-1.5-1-0.6-0.4-1.2-0.9-1.5-1.1-0.9-0.7-3.9-4-4.8-5.4-1.4-2.3-2.4-4.2-3-6.2-0.3-0.6-0.6-1.3-0.7-1.7-0.4-0.7-1-4.6-1.2-7.6-0.3-4.5 0.4-11.1 1.4-13.2 0.2-0.5 0.5-1.2 0.6-1.5 0.1-0.4 0.3-0.9 0.5-1.3 0.2-0.3 0.3-0.8 0.4-1 0-0.2 0.3-0.6 0.5-0.9 0.2-0.3 0.5-0.7 0.6-1 0.2-0.4 0.9-1.6 2.2-3.3 1-1.4 3.8-3.9 5.5-5.2 2.3-1.5 5.7-3.2 7.2-3.5 0.5-0.1 1.6-0.3 2.4-0.5 1.9-0.5 5-0.7 8.2-0.5 8.1 0.4 15.3 4.4 20 11 0.8 1.2 1.9 3.1 1.9 3.3 0 0.1 0.3 0.8 0.7 1.5 0.8 1.6 1.1 2.8 2.1 7.4 0.5 1.8 0.5 2.2 0.5 5.5 0.1 4.2 0 5.6-0.9 8.9-0.1 0.6-0.3 1.5-0.4 2-0.2 1-0.9 2.9-1.4 3.6-0.1 0.3-0.4 0.9-0.6 1.3-0.3 0.9-2.2 3.9-3 4.7-0.3 0.3-0.7 0.8-1 1.2-0.3 0.4-0.9 1-1.4 1.4-0.4 0.4-1.3 1.2-1.9 1.7-0.5 0.5-1.5 1.1-2 1.5-1.6 0.9-4.5 2.3-5.2 2.4-0.4 0.1-0.8 0.3-1 0.4-0.2 0.1-1.2 0.4-2.3 0.6-1.6 0.3-2.4 0.3-5.6 0.4-2.6 0-4.2-0.1-5.2-0.2zM624.3 831.9c-2.2-0.3-3.9-0.7-5.5-1.4-0.8-0.4-1.8-0.8-2.1-0.9-0.3-0.1-0.8-0.4-1.2-0.7-0.3-0.2-0.9-0.6-1.3-0.7-1.3-0.7-3.9-3.1-5.5-5-2.8-3.4-5-8.2-5.5-12.1-0.1-0.4-0.3-1.2-0.5-1.8l-0.4-1.1 0-5.4 0-5.5 0.4-1.1c0.2-0.6 0.4-1.6 0.5-2.1 0.4-1.9 1.3-4.9 1.9-5.8 0.1-0.2 0.3-0.7 0.4-1 0.2-0.5 0.9-1.8 2.3-3.8 0.7-1.2 3.5-4.1 4.6-4.9 1.5-1.2 4.6-3 5.5-3.3 0.2-0.1 0.8-0.3 1.2-0.5 0.5-0.2 1.2-0.5 1.5-0.6 0.3 0 1.3-0.2 2.2-0.4 2.7-0.7 8.5-0.8 11.2-0.3 2 0.4 4.1 0.9 4.5 1.2 0.2 0.1 0.6 0.3 0.9 0.4 0.7 0.2 3.4 1.6 4.3 2.1 0.3 0.2 0.8 0.6 1.2 1 0.4 0.3 0.8 0.6 0.8 0.6 0.1 0 0.7 0.5 1.4 1.2 1.6 1.6 3.4 4 3.9 5.3 0.2 0.6 0.5 1.4 0.7 1.8 0.7 1.5 1.1 3.1 1.2 5.2 0.3 3.3 0.3 3.5-0.2 3.9l-0.4 0.4-6.4-0.1c-6.8 0-6.9 0-7.2-0.7 0-0.1-0.1-1-0.2-2.1l-0.2-1.9-0.7-1.2c-0.7-1.1-1.3-1.7-2.4-2.5-0.5-0.3-2.9-1.1-4.2-1.3-1.4-0.2-4.2 0-6 0.5-1.3 0.4-2.4 1-3.8 2.2-0.7 0.5-1.6 1.8-2.5 3.5-1 1.9-1.4 3.7-1.6 6.7-0.1 1.2-0.2 2.3-0.3 2.4 0 0.1 0.1 1.5 0.2 3.1 0.3 3.4 0.8 5.6 1.5 6.9 0.3 0.4 0.6 0.9 0.6 1.2 0.1 0.4 1 1.6 2.1 2.7 0.7 0.7 1.5 1.2 3.2 2 1.4 0.7 5.8 0.9 7.9 0.4 2.4-0.6 4.5-2.1 5-3.6 0.2-0.4 0.4-0.9 0.6-1.2 0.4-0.7 0.5-1.2 0.6-3.4 0.2-1.9 0.2-2.1 1.2-2.2 0.3-0.1 3.3-0.1 6.7-0.1l6.1 0 0.3 0.3c0.2 0.3 0.3 0.5 0.3 0.9 0 1.4-0.3 5.2-0.5 6.1-0.2 0.9-1.7 5.1-2.1 5.7-1 2.1-3.8 5.2-5.8 6.7-2.3 1.7-6.6 3.6-8.8 4-0.5 0-1.3 0.2-1.7 0.2-1.1 0.3-8.3 0.3-9.9 0.1zM684.5 831.9c-2.4-0.3-3.4-0.5-5.2-1.1-5.4-1.7-8.9-4.6-11.9-9.8-0.3-0.5-0.6-1.1-0.7-1.4-0.1-0.2-0.3-0.9-0.6-1.5-0.6-1.3-0.7-2.2-0.9-4.9-0.1-1.2-0.2-2.7-0.2-3.3-0.1-1.1-0.1-1.2 0.3-1.6l0.3-0.4 6.3 0 6.3 0 0.4 0.5c0.4 0.4 0.4 0.5 0.4 1.4 0 2.7 0.7 4.8 2 6.1 1 0.9 1.5 1.3 3.1 1.9 3.4 1.3 8.8 1.2 11.3-0.3 0.5-0.3 1.1-0.7 1.3-0.9 0.5-0.5 1.3-1.9 1.3-2.5 0-0.5-0.6-1.7-1-2.1-0.7-0.6-2.6-1.5-3.5-1.7-0.5-0.1-1.7-0.4-2.5-0.7-1.8-0.6-5.2-1.4-6.9-1.6-0.6-0.1-1.4-0.3-1.7-0.5-0.3-0.1-1.3-0.5-2.1-0.7-4.5-1.4-7.8-3.4-10.1-6.1-1.2-1.4-2.6-4.1-3-5.9-0.4-1.4-0.6-4.8-0.3-6.5 0.2-1.5 0.9-3.7 1.3-4.3 0.2-0.2 0.4-0.7 0.5-1.1 0.2-0.5 1.1-1.7 2.5-3.3 0.9-1 3.7-3.2 4-3.2 0 0 0.4-0.3 0.9-0.5 1.1-0.7 3.4-1.6 5.5-2.1l1.8-0.5 4.8 0c4.5 0 4.8 0 6 0.3 0.7 0.2 1.8 0.5 2.4 0.6 0.5 0.1 1.3 0.3 1.6 0.5 0.4 0.2 1 0.5 1.4 0.6 0.4 0.1 0.9 0.3 1.1 0.5 0.2 0.1 0.6 0.4 1 0.5 1 0.5 3 2 4.1 3.1 1 1 2.6 3.1 2.6 3.4 0 0 0.2 0.4 0.4 0.8 0.6 0.9 1.7 4.1 1.9 5.5 0.2 1.8 0.3 5.6 0.1 5.9-0.3 0.6-0.5 0.6-6.8 0.6-5.7 0-6.1-0.1-6.5-0.3-0.4-0.3-0.6-1.2-0.7-2.3 0-1.6-0.6-3.3-1.7-4.4-0.9-0.9-1.1-1-3.1-1.5-1.4-0.3-1.8-0.4-3.7-0.4-1.9 0-2.3 0.1-3.4 0.4-0.7 0.2-1.4 0.4-1.7 0.5-0.5 0.1-1.6 1.1-1.9 1.8-0.5 1.1-0.2 2.2 0.7 2.7 0.3 0.1 1.7 0.7 3.2 1.2 2 0.6 3.2 0.9 4.6 1.1 1 0.2 2.3 0.5 2.7 0.7 0.5 0.2 1.9 0.6 3.2 0.9 1.3 0.3 2.8 0.8 3.4 1.1 0.6 0.2 1.4 0.5 1.8 0.7 0.9 0.2 3.2 1.3 3.4 1.6 0.1 0.2 0.5 0.5 0.9 0.7 0.4 0.3 1.2 1 1.9 1.5 2.5 2.4 4 5 4.6 8.2 0.3 1.6 0.3 5.5 0 7.1-0.6 3.5-2.3 6.7-5 9.2-0.7 0.7-1.7 1.5-2.2 1.9-0.4 0.3-1 0.7-1.2 0.8-0.5 0.5-3.1 1.7-4 2-0.4 0.1-0.9 0.2-1.1 0.3-0.1 0.1-1.1 0.4-2.2 0.6-1.7 0.3-2.4 0.3-5.9 0.4-2.7 0-4.6-0.1-5.6-0.2zM47.7 831.3c-0.2 0-0.4-0.2-0.6-0.4l-0.4-0.4 0-20.9c0-11.6-0.1-21.2-0.1-21.4-0.2-0.6-0.5-0.7-8.1-0.7-4.9 0-7.1 0-7.3-0.1-0.2-0.1-0.4-0.3-0.4-0.5-0.2-0.5-0.2-12 0-12.3 0.1-0.2 0.4-0.4 0.6-0.5 0.7-0.2 44.5-0.2 45.1 0 0.3 0.1 0.5 0.3 0.6 0.5 0.3 0.5 0.3 12 0.1 12.3-0.4 0.7-0.5 0.7-8.1 0.7-7.3 0-7.3 0-7.6 0.3l-0.3 0.3 0 21.1c0 20.8 0 21.1-0.3 21.5-0.1 0.3-0.4 0.5-0.5 0.5-0.8 0-12.4 0-12.7 0zM90.9 831.3c-0.2-0.1-0.4-0.3-0.5-0.5-0.2-0.3-0.3-2.9-0.3-28.2l0-27.9 0.5-0.3 0.4-0.4 20.5 0c13.6 0 20.7 0 21 0.1 0.3 0.1 0.6 0.3 0.7 0.4 0.1 0.1 0.1 2.8 0.2 6.2 0 6 0 6.2-0.5 6.6-0.2 0.2-3.6 0.2-13.9 0.2-13.7 0.1-13.7 0.1-14.1 0.4l-0.4 0.3 0 3.2c0 3.1 0 3.2 0.3 3.5l0.3 0.3 12.9 0c12.9 0.1 12.9 0.1 13.2 0.4 0.2 0.2 0.2 0.6 0.3 6 0 6.4 0 6.7-0.7 7-0.4 0.1-3.6 0.1-12.7 0.1-6.7-0.1-12.4 0-12.7 0-0.2 0.1-0.5 0.3-0.7 0.5-0.2 0.3-0.2 0.6-0.2 4 0 2.1 0.1 3.9 0.1 4 0.3 0.6 0.4 0.6 15 0.6 8.5-0.1 14.1 0 14.3 0.1 0.7 0.3 0.7 0.3 0.7 6.7 0 3.3 0 6.1-0.1 6.2-0.2 0.6 0.5 0.6-22.1 0.6-11.6 0-21.3-0.1-21.5-0.1zM149.9 831.2c-0.2-0.1-0.5-0.3-0.5-0.4-0.1-0.2-0.1-12.8-0.1-28.2 0-20.9 0-28 0.2-28.2 0.3-0.4 1.2-0.4 7.1-0.4 6.5 0 6.8 0 6.9 0.8 0 0.2 0.1 9.8 0.1 21.4l0 20.9 0.4 0.4 0.3 0.3 11.2 0c6.2 0 11.4 0.1 11.5 0.1 0.1 0 0.2 0.1 0.3 0.4 0.2 0.3 0.3 1.4 0.3 6.3 0 6.3 0 6.2-0.7 6.6-0.4 0.2-36.4 0.2-37 0zM201.7 831.2c-0.2-0.1-0.5-0.3-0.6-0.5-0.1-0.2-0.1-8.6-0.1-28.2l0-27.9 0.3-0.3 0.4-0.3 20.8 0c14.4 0 21 0 21.2 0.1 0.2 0.1 0.4 0.3 0.5 0.5 0.1 0.3 0.1 2.4 0.1 6.3-0.1 6-0.1 6.6-0.6 6.6-0.1 0-6.3 0-13.8 0-14.6 0.1-14.2 0.1-14.5 0.7 0 0.1 0 1.5 0 3 0 3 0.1 3.6 0.7 3.9 0.2 0.1 3.9 0.2 12.9 0.2l12.7 0 0.3 0.3 0.4 0.3 0 5.9c-0.1 3.7-0.1 6-0.2 6.2-0.1 0.2-0.3 0.4-0.4 0.5-0.2 0.2-3.3 0.2-12.9 0.2-7 0-12.7 0-12.9 0.1-0.5 0.2-0.6 0.7-0.6 4.4 0 3.8 0.1 4.3 0.7 4.5 0.2 0 6.6 0.1 14.3 0 9.2 0 14.1 0.1 14.4 0.2 0.2 0.1 0.4 0.3 0.5 0.5 0.1 0.3 0.2 2.2 0.1 6.4 0 5.6 0 6.1-0.3 6.3-0.2 0.2-1.3 0.2-21.6 0.3-17.8 0-21.4 0-21.8-0.2zM261.3 831.2c-0.2-0.1-0.5-0.3-0.6-0.5-0.1-0.3-0.1-6.5-0.1-28.2l0-27.8 0.3-0.3 0.4-0.4 11.9 0c12.3 0 17.6 0.1 19.3 0.4 2.7 0.5 4.6 1 5.6 1.5 0.5 0.2 1 0.5 1.1 0.5 0.1 0 0.4 0.2 0.7 0.4 0.3 0.2 0.8 0.6 1.1 0.8 1.7 1.1 4.4 4.5 5.1 6.4 0.2 0.6 0.5 1.4 0.7 1.8 0.6 1.3 0.8 3.1 0.8 6.1 0 2.9-0.2 4.6-0.7 5.6-0.2 0.4-0.5 1-0.6 1.4-0.7 1.9-2.3 4.2-4.4 6-0.7 0.5-1.1 1-1.1 1.3 0 0 0.2 0.3 0.4 0.5 0.4 0.5 1.3 2.1 1.7 2.9 0.1 0.2 0.4 0.7 0.6 1.1 0.2 0.3 0.5 1 0.6 1.6 0.2 0.5 0.4 1.2 0.6 1.5 0.3 0.7 0.9 2.4 1.5 4.1 0.2 0.6 0.5 1.4 0.6 1.6 0.1 0.3 0.5 1.3 0.8 2.2 0.7 2.1 1.3 3.8 1.6 4.3 0.1 0.2 0.3 0.8 0.4 1.3 0.2 0.5 0.4 1.3 0.7 1.7 0.4 0.8 0.6 1.9 0.3 2.2-0.3 0.2-13.9 0.2-14.5 0-0.5-0.3-0.7-0.7-1.1-2-0.2-0.7-0.5-1.4-0.6-1.6-0.2-0.3-0.4-0.9-0.6-1.5-0.2-0.5-0.6-1.8-1-2.8-0.9-2.5-1.6-4.6-2.3-6.6-0.8-2.5-1.4-3.5-2.6-4.5-1.2-1.1-2.4-1.8-3.4-1.9-0.4-0.1-2.5-0.2-4.8-0.1-4 0-4 0-4.3 0.3l-0.4 0.3 0 10-0.1 9.9-0.3 0.3-0.3 0.3-6.3 0c-4.3 0-6.5 0-6.7-0.1zM391.4 831.3c-0.2 0-0.5-0.2-0.7-0.4l-0.4-0.4 0-27.8c0-17.6 0.1-28 0.2-28.2 0.3-0.5 0.5-0.5 11.6-0.5 11.3 0.1 14.2 0.2 15.7 0.6 0.6 0.2 1.2 0.4 1.5 0.4 0.9 0.2 2.2 0.6 3 1 0.4 0.2 0.8 0.4 0.9 0.4 0.3 0 2.2 1.1 2.8 1.6 0.3 0.2 0.8 0.6 1 0.7 0.6 0.4 2.1 1.9 2.8 3 1 1.5 1.8 3.5 2.2 5.1 0.4 1.5 0.4 1.8 0.4 4.3-0.1 2.7-0.1 2.7-0.6 4.1-0.7 2-1.3 3.2-1.9 3.9-0.4 0.4-0.5 0.7-0.5 1.1 0 0.6 0.1 0.7 1 1.5 1 0.9 1.8 2.1 2.8 4.1 0.8 1.5 1 2.2 1.4 4.4 0.4 2.2 0.2 5.6-0.4 7.9-0.4 1.8-1.3 3.9-2 4.7-0.2 0.3-0.4 0.7-0.6 0.9-0.5 1.1-3.5 3.7-4.7 4.3-0.4 0.2-1.1 0.5-1.4 0.8-0.7 0.4-1.1 0.6-2.4 0.9-0.5 0.2-1.4 0.5-2 0.7-0.6 0.2-1.6 0.4-2.2 0.4-0.6 0.1-1.5 0.3-1.9 0.3-0.6 0.2-4.2 0.2-13 0.2-6.7 0-12.4 0-12.6 0zM529.2 831.1c-0.2-0.2-0.4-0.5-0.4-0.8 0-0.2 0-9.7 0-21.2 0-20.4 0-20.9-0.2-21.2l-0.3-0.3-7.4 0-7.5 0-0.3-0.4-0.4-0.4 0-6c0-3.9 0.1-6.1 0.2-6.3 0-0.1 0.3-0.3 0.5-0.4 0.3-0.1 7.5-0.1 22.8-0.1l22.4 0 0.4 0.4 0.5 0.4 0 5.9c0 4.8-0.1 5.9-0.2 6.3-0.2 0.3-0.3 0.5-0.4 0.5-0.1 0-3.5 0-7.5 0.1-7.6 0-7.7 0-8 0.6-0.1 0.2-0.2 7-0.2 21.3 0 22.9 0.1 21.5-0.7 21.8-0.2 0-3.2 0.1-6.7 0.1l-6.3 0-0.3-0.3zM573.3 831.1l-0.4-0.4 0-28 0-28 0.4-0.4 0.3-0.3 6.6 0 6.5 0 0.4 0.4 0.3 0.4 0 28-0.1 27.9-0.3 0.3c-0.3 0.3-0.3 0.3-6.8 0.3l-6.5 0.1-0.4-0.3zM352.1 818.4c1.2-0.4 3.2-1.4 4.4-2.3 1.8-1.5 3.6-4.3 4.1-6.4 0.1-0.6 0.3-1.5 0.5-1.9 0.4-1.1 0.6-3.9 0.5-6.5-0.1-1.5-0.2-2.4-0.5-3.6-0.2-0.8-0.5-1.9-0.6-2.4-0.1-0.5-0.4-1.3-0.6-1.7-0.3-0.3-0.7-1-0.9-1.5-0.6-0.9-2.3-2.6-3.7-3.6-0.8-0.6-1.3-0.8-2.3-1.1-0.7-0.2-1.5-0.4-1.8-0.5-0.3 0-1.3-0.1-2.3-0.1-1.6 0-2.1 0.1-3.6 0.4-1 0.3-2 0.6-2.2 0.7-0.2 0.1-0.8 0.5-1.3 0.9-1 0.7-2.5 2.1-3.3 3.3-0.7 1.1-1.9 4.1-2.3 6.1-0.4 1.7-0.5 6-0.2 7.9 0.4 2.7 1.5 5.8 2.6 7.4 2 2.8 4.7 4.5 8.1 5.1 0.8 0.2 4.6 0 5.4-0.2zM477.6 818.4c1.8-0.4 4-1.5 5.2-2.7 1.6-1.6 2.3-2.5 3.1-4.5 0.9-2 1.1-2.4 1.3-4.1 0.5-4.5 0.1-10-0.8-11.7-0.1-0.3-0.3-0.9-0.4-1.2-1-2.6-4.6-6.2-6.8-6.7-0.4-0.1-1.1-0.3-1.6-0.5-1.3-0.4-4.3-0.4-5.7 0.1-0.5 0.1-1.3 0.3-1.8 0.4-0.5 0.1-1.1 0.3-1.3 0.5-0.2 0.2-0.6 0.5-1 0.7-2.6 1.6-4.8 5.2-5.5 8.8-0.6 3.3-0.5 8.8 0.2 11.5 0.3 1.2 1.3 3.4 1.9 4.3 0.8 1.2 2.9 3.3 3.9 3.8 0.4 0.2 1 0.5 1.4 0.7 1.6 0.8 5.5 1.2 7.9 0.6zM416.8 817.3c1.4-0.4 1.6-0.5 2.4-1.3 0.9-0.9 1-1.2 1-3.1 0-1.7-0.1-2.2-0.9-3-1.3-1.3-3.3-1.6-9.7-1.6-4.3 0-4.4 0-4.7 0.3-0.2 0.2-0.3 0.5-0.3 4.3l0 4.1 0.4 0.4c0.2 0.1 0.5 0.3 0.7 0.4 0.2 0 2.4 0 4.9 0l4.6-0.1 1.6-0.4zM289 796.4c1.7-0.2 2.4-0.5 3.1-1.2 0.8-0.7 0.9-1.3 1-3.1 0-2.2-0.5-2.9-2.6-3.9-0.6-0.4-0.9-0.4-2.5-0.5-1-0.1-4.2-0.1-7.1-0.1-4.9 0.1-5.3 0.1-5.6 0.4l-0.3 0.2 0 3.9 0 3.9 0.3 0.3c0.4 0.2 0.5 0.2 6.6 0.2 3.4 0 6.6 0 7.1-0.1zM415.7 794.3c1.1-0.2 1.8-0.7 2.2-1.5 0.4-0.8 0.4-2.3 0-3.2-0.3-0.6-0.4-0.7-1.6-1.3l-1.2-0.6-2.4-0.1c-3.3-0.1-6.4-0.1-7.1 0-1 0.3-1 0.4-1 3.6 0.1 3.1 0.1 3.1 1 3.3 1 0.2 8.9 0.1 10.1-0.2zM511.2 915.2c-1.2 0-2.1-0.2-2.9-0.4-0.7-0.2-1.8-0.6-2.4-0.8-2.6-0.7-6-2.7-7.7-4.4-1.9-1.9-3.8-4.4-4.8-6.5-0.6-1.3-1.8-4.3-2.1-5.6-0.1-0.5-0.3-2-0.5-3.4-0.5-4.2-0.2-10.9 0.6-14 0.3-1.3 1.7-4.9 2.2-5.7 0.2-0.4 0.6-1 0.7-1.3 0.8-1.6 3.9-5 5.3-6 0.4-0.2 0.9-0.5 1.2-0.8 0.8-0.6 2.8-1.7 3.6-1.9 0.3-0.1 1.1-0.3 1.6-0.6 0.5-0.2 1.8-0.6 2.8-0.8 1.7-0.3 2.1-0.3 5.2-0.3 3.2 0 3.6 0 5.3 0.4 1.1 0.2 2.2 0.5 2.5 0.6 0.3 0.2 1.1 0.5 1.8 0.7 1.9 0.6 5.9 3.4 7 4.8 0.2 0.3 0.6 0.7 0.8 1 0.5 0.5 1.3 1.9 2 3.2 0.4 0.9 1.3 4.3 1.3 5.1 0 0.3-0.1 0.5-0.3 0.7-0.4 0.3-0.6 0.3-3.8 0.3-2 0-3.5 0-3.6-0.1-0.4-0.2-0.6-0.6-0.8-2-0.2-1.1-0.3-1.4-0.9-2.4-1.6-2.5-4.4-4.3-7.7-4.9-2.1-0.5-5.2-0.5-7.3 0-1.5 0.4-3.3 1.1-4.6 2-0.9 0.6-2.7 2.3-3.2 3-0.2 0.4-0.6 0.8-0.8 1-0.1 0.2-0.4 0.7-0.5 1-0.1 0.3-0.3 0.8-0.5 1-0.4 0.5-1.2 3.3-1.5 4.8-0.7 4.5-0.5 10 0.4 14.1 0.3 1.1 1.9 4.4 2.7 5.5 1.7 2.4 4.4 4.3 7 5 0.7 0.1 1.4 0.4 1.7 0.5 0.7 0.3 4.5 0.4 5.4 0.1 0.4-0.1 1.3-0.3 2-0.5 1.8-0.4 3.5-1.3 4.9-2.7 1.2-1 1.4-1.3 2.5-3.4 0.1-0.2 0.3-1 0.4-1.7 0.1-0.8 0.2-1.6 0.3-1.8 0.1-0.6 0.7-0.7 3.9-0.7 4 0 4.3 0.1 4.3 1.4 0 0.7-0.9 4.6-1.2 5.1-0.1 0.1-0.3 0.6-0.5 1-0.9 2.3-3.3 5.2-5.5 6.6-2.2 1.5-4 2.4-5.6 2.8-0.6 0.1-1.6 0.4-2.2 0.6-1.6 0.5-4.7 0.7-8.5 0.4zM280 915.1c-0.5 0-1.1-0.2-1.4-0.3-0.3-0.2-0.7-0.3-0.9-0.3-0.5 0-3-0.7-4.2-1.2-2.2-0.9-5.2-3.1-6.4-4.7-0.2-0.4-0.7-1.1-1-1.6-1.8-2.5-3.3-8.2-2.5-9.3 0.3-0.3 0.3-0.3 3.5-0.3 4-0.1 3.7-0.2 4.4 2.4 0.6 2.2 1.3 3.6 2.6 4.7 1.5 1.4 3.6 2.6 5.3 2.9 0.5 0.1 1.4 0.3 1.8 0.5 0.7 0.2 1.2 0.3 3.5 0.3 2.5 0 2.7 0 4-0.4 0.7-0.2 1.5-0.5 1.8-0.5 1.5-0.4 3.7-2 4.5-3.3 0.5-0.8 1.3-3 1.3-3.7 0-0.6-0.6-2.4-1-3.1-0.6-1.3-2.3-2.5-4.8-3.3-0.5-0.2-1.2-0.5-1.4-0.6-0.3-0.1-1.2-0.4-2.1-0.6-0.9-0.2-2.2-0.5-2.9-0.7-0.6-0.2-2.3-0.6-3.7-0.9-2.5-0.5-2.8-0.6-4.6-1.3-0.5-0.2-1.3-0.5-1.7-0.6-0.5-0.1-1.2-0.5-1.7-0.8-0.5-0.3-1.3-0.8-1.8-1-1.4-0.8-3.1-2.5-4.1-4.4-0.5-0.9-0.9-1.9-1.1-2.5-0.3-1.5-0.4-4.2-0.1-5.9 0.2-1.3 0.3-1.7 1.1-3.2 0.6-1.4 1.1-2.1 1.9-3 1.7-2 4-3.6 5.7-4.1 0.5-0.1 1.2-0.4 1.7-0.6 0.5-0.2 1.6-0.5 2.4-0.7 1.4-0.3 2-0.3 5.3-0.3 3.5 0 3.9 0 5.7 0.4 1 0.2 2.2 0.5 2.7 0.7 0.5 0.3 1.3 0.6 1.8 0.7 0.4 0.1 1.1 0.4 1.4 0.6 0.3 0.2 0.7 0.5 1 0.7 0.7 0.3 2.2 1.5 3.2 2.6 0.8 0.9 2 2.6 2.2 3.4 0.1 0.2 0.3 0.6 0.5 1 0.3 0.7 0.7 2.7 0.8 4.1 0 1.6 0.1 1.5-3.5 1.6-3.2 0.1-3.6 0.1-4.1-0.5-0.2-0.2-0.3-0.6-0.3-1.1-0.2-1.3-1.2-3.2-2.3-4.4-2.1-2-5.6-3-9.9-2.7-3.2 0.2-4.1 0.4-5.5 1.2-2.2 1.1-2.9 1.8-3.7 3.6-0.4 0.7-0.5 2.7-0.3 3.6 0.5 1.9 3 3.5 6.8 4.5 0.7 0.2 1.6 0.4 1.8 0.5 0.2 0.1 1.3 0.3 2.4 0.6 1 0.2 2.5 0.5 3.1 0.7 0.7 0.2 1.7 0.5 2.4 0.6 5.7 1.5 8.8 3.2 11.6 6.3 1.1 1.3 1.4 1.8 2.2 4.1 0.9 2.5 0.7 7.4-0.3 9.4-0.1 0.2-0.4 0.8-0.6 1.3-0.2 0.5-0.7 1.4-1.1 1.9-1 1.3-3.2 3.4-4.1 3.8-0.4 0.3-0.9 0.6-1.2 0.8-0.7 0.6-4 1.7-6.8 2.4-0.5 0.2-8.1 0.1-9.3 0zM153.6 914.3c-2.2-0.1-3.1-0.2-3.2-0.3-0.2-0.1-0.2-4.9-0.2-25.1l-0.1-24.9 0.3-0.3c0.3-0.3 0.4-0.3 12.6-0.2l12.3 0 2.9 0.4c1.5 0.2 3.2 0.5 3.8 0.7 1.3 0.3 2.7 1.1 3.9 2 1.1 1 3.4 3.9 3.6 4.8 0.1 0.3 0.3 0.9 0.5 1.4 0.2 0.4 0.5 1.3 0.7 2 0.5 2.5 0.2 6.8-0.7 8.5-0.1 0.4-0.4 0.9-0.5 1.3-0.1 0.3-0.4 0.9-0.7 1.2-0.3 0.3-0.8 0.9-1.1 1.4-0.6 0.8-1.5 1.6-2.4 2.1-0.3 0.2-0.7 0.5-1 0.7-0.2 0.2-0.8 0.5-1.2 0.6-0.4 0.1-0.8 0.4-0.9 0.5-0.2 0.4 0 0.9 0.6 1.3 1.1 0.9 2.8 2.9 3.4 4.2 0.2 0.5 0.5 1.1 0.6 1.3 0.2 0.2 0.6 1.2 1 2.2 0.3 1.1 0.8 2.3 1 2.8 0.3 0.6 0.6 1.4 0.7 2 0.2 0.5 0.5 1.4 0.7 1.9 0.4 1.1 1.1 2.9 1.5 4.1 0.1 0.5 0.4 1.2 0.6 1.6 0.4 0.8 0.4 1.4 0 1.6-0.5 0.3-7.2 0.2-7.7-0.1-0.4-0.2-0.8-0.9-1.8-4-0.3-0.9-0.9-2.6-1.3-3.7-0.4-1.2-0.8-2.5-1-2.9-0.1-0.4-0.3-1-0.5-1.4-0.2-0.4-0.4-1-0.6-1.4-0.5-2-2.7-4.7-4.7-5.9-1.1-0.7-2.8-1.3-4-1.5-0.5-0.1-2.8-0.1-6.4-0.1l-5.4 0-0.4 0.4-0.3 0.4 0 9.8 0 9.8-0.3 0.4c-0.4 0.5-0.6 0.5-4.3 0.4zM210.2 914l-0.3-0.3 0-24.9c0-24.2 0-24.9 0.2-25.1 0.3-0.3 1.5-0.3 18.3-0.3 17.3 0 18 0 18.2 0.3 0.3 0.2 0.3 0.5 0.3 3.1 0 1.5 0 2.9-0.1 3.1 0 0.1-0.2 0.4-0.4 0.4-0.2 0.2-3.7 0.2-13.1 0.2-7 0-13.2 0-13.7 0.1-0.8 0.1-1.1 0.1-1.4 0.4l-0.3 0.3 0 6.3c0 6 0 6.3 0.3 6.6l0.2 0.3 13 0.1c12.8 0 13 0 13.3 0.3 0.2 0.3 0.2 0.4 0.2 3.2 0 2.9 0 3-0.3 3.3l-0.3 0.3-12.6 0c-8.6 0-12.7 0-13 0.1-0.3 0.1-0.5 0.3-0.6 0.5-0.1 0.3-0.2 2.4-0.2 7.3 0 6.5 0 6.9 0.3 7.2l0.2 0.3 14.4 0.1c13.9 0 14.4 0 14.7 0.3l0.4 0.2 0 3c0.1 2.9 0.1 2.9-0.2 3.2l-0.4 0.3-18.4 0.1-18.4 0-0.3-0.3zM322.6 914.3c-0.2 0-0.5-0.2-0.6-0.4-0.3-0.4-0.3-0.5-0.3-25.1 0-24.6 0-24.8 0.3-25.1 0.2-0.3 0.4-0.3 18.1-0.3l17.9 0 0.3 0.4 0.4 0.3-0.1 2.9 0 3-0.4 0.3c-0.4 0.2-0.5 0.2-14.1 0.2l-13.7 0.1-0.3 0.3-0.3 0.3 0 6.3c-0.1 6.3-0.1 6.4 0.2 6.7l0.3 0.4 12.8 0c7.1 0 13 0 13.1 0.1 0.5 0.2 0.6 0.7 0.6 3.5-0.1 1.5-0.1 2.8-0.2 2.9 0 0.2-0.2 0.4-0.4 0.5-0.2 0.1-3.7 0.1-12.9 0.1-7.7 0-12.7 0-12.9 0.1-0.6 0.2-0.7 0.6-0.7 7.7 0 6.8 0.1 7.3 0.6 7.5 0.1 0.1 6.7 0.2 14.6 0.2 14 0.1 14.5 0.1 14.7 0.3 0.3 0.3 0.3 0.4 0.3 3.1 0 3 0 3.5-0.7 3.6-0.4 0.1-35.9 0.2-36.6 0.1zM372 914.2c-0.6-0.2-0.6-0.7-0.1-1.6 0.2-0.5 0.6-1.2 0.7-1.7 0.2-0.5 0.6-1.6 0.9-2.4 0.3-0.7 0.8-2.1 1.1-3 0.3-0.9 0.7-1.8 0.8-2.1 0.2-0.3 0.4-0.9 0.6-1.3 0.1-0.5 0.5-1.6 0.9-2.6 0.8-1.9 1.1-2.7 1.5-4 0.2-0.4 0.5-1.3 0.8-2 0.3-0.6 0.7-1.8 0.9-2.5 0.3-0.8 0.6-1.6 0.8-1.8 0.1-0.3 0.4-1.1 0.6-1.8 0.3-0.7 0.5-1.6 0.7-1.9 0.7-1.7 1.5-3.6 1.7-4.4 0.1-0.4 0.3-1 0.5-1.2 0.1-0.3 0.5-1.2 0.8-2.1 1-2.7 1.2-3.3 1.5-3.7 0.1-0.2 0.3-0.9 0.5-1.5 0.2-0.6 0.4-1.2 0.5-1.3 0.1-0.2 0.5-1.3 1-2.6 0.4-1.2 1-2.6 1.2-3.1 0.2-0.5 0.4-1 0.5-1.2 0.3-0.9 0.5-1 4.1-1 1.9 0 3.5 0 3.6 0 0.4 0 0.9 0.8 1.4 2 0.2 0.8 0.6 1.6 0.8 1.9 0.2 0.4 0.4 1.1 0.6 1.6 0.1 0.5 0.6 1.6 1 2.4 0.3 0.8 0.8 1.9 0.9 2.4 0.2 0.5 0.5 1.3 0.8 1.9 0.6 1.4 2.2 5.3 2.7 6.5 0.2 0.7 0.6 1.6 0.8 2.2 0.3 0.5 0.6 1.3 0.7 1.6 0.4 1.1 1 2.5 1.4 3.4 0.2 0.5 0.5 1.1 0.6 1.4 0.1 0.4 0.3 1 0.5 1.5 1.2 2.7 1.6 3.6 1.7 4.2 0.1 0.4 0.4 1 0.6 1.3 0.2 0.4 0.5 1.1 0.7 1.7 0.9 2.4 1.2 3 1.5 3.8 0.3 0.5 0.5 1.1 0.6 1.5 0.2 0.6 0.5 1.4 1.5 3.5 0.3 0.6 0.7 1.6 0.8 2.1 0.2 0.5 0.4 1.1 0.5 1.3 0.8 1.3 0.8 2.4 0.2 2.6-0.2 0.1-1.8 0.1-3.6 0.1-1.8 0-3.4 0-3.6 0-0.7 0-1.1-0.6-1.6-1.9-0.2-0.6-0.7-2-1.1-2.9-0.4-1-0.8-2.2-1-2.7-0.2-0.5-0.4-1.2-0.6-1.5-0.1-0.3-0.4-1.1-0.7-1.8-0.7-2.3-1.3-3.6-1.8-3.9l-0.5-0.3-8.9 0c-10.4 0-9.8-0.1-10.2 1.2-0.2 0.4-0.4 0.9-0.5 1.1-0.2 0.4-0.9 2.3-2.8 7.8-0.3 0.8-0.6 1.7-0.7 2-0.1 0.2-0.3 0.7-0.4 1.2-0.2 0.9-0.9 1.7-1.6 1.7-0.2 0-1.8 0-3.4 0-1.7 0-3.2 0-3.4-0.1zM436.4 914.3c-1.6-0.1-3-0.1-3-0.2 0 0-0.1-0.2-0.2-0.4-0.2-0.4-0.3-3.3-0.3-24.7 0-13.3 0-24.3 0-24.4 0-0.5 0-0.7 0.4-1 0.3-0.2 1.4-0.2 11.5-0.2 11 0 14.5 0.1 16.6 0.6 0.3 0 0.9 0.1 1.4 0.2 1.8 0.2 3.5 0.8 4.7 1.6 2.2 1.4 3.3 2.7 4.6 5.2 1.1 2.1 1.5 3.9 1.5 7.1 0 3.3-0.3 4.6-1.5 6.8-0.7 1.3-1 1.8-2 2.8-0.7 0.7-1.5 1.4-1.9 1.6-0.3 0.2-0.8 0.5-1 0.7-0.3 0.2-0.9 0.5-1.2 0.6-1.3 0.4-1.3 1.3-0.1 2.1 0.7 0.4 1.1 0.9 2 2.1 0.3 0.5 0.8 1.1 1 1.4 0.3 0.3 0.6 0.9 0.7 1.4 0.1 0.4 0.4 1.2 0.6 1.7 0.5 0.9 1.9 4.7 2.6 7 0.6 1.6 0.8 2.3 1.7 4.5 1 2.3 1.1 2.7 0.7 3.2l-0.3 0.3-3.5 0c-4.6 0-4.4 0.1-5.1-2.3-0.2-0.7-0.5-1.4-0.6-1.6-0.1-0.3-0.4-1.1-0.7-1.9-0.7-2.3-1.2-3.9-1.6-4.5-0.1-0.3-0.4-1.1-0.5-1.8-0.2-0.8-0.6-1.7-1.2-2.9-0.8-1.5-1.2-2-2.1-2.9-1.2-1.2-2.2-1.9-4.2-2.7-1.4-0.5-2.7-0.6-8.4-0.6-5 0-5.2 0-5.5 0.3-0.1 0.1-0.2 0.4-0.2 0.8 0 0.3 0 4.6 0 9.7 0 10.4 0 10.1-1 10.3-0.3 0.1-0.6 0.2-0.7 0.2-0.1-0.1-1.6-0.1-3.2-0.1zM553.2 914.2c-0.2 0-0.5-0.2-0.7-0.3-0.2-0.2-0.2-2.2-0.2-24.5-0.1-13.4 0-24.6 0-25 0.2-1 0.3-1 4.1-1 3.2 0 3.3 0 3.7 0.3l0.3 0.3 0 9.5c0 6.5 0.1 9.5 0.2 9.7 0.1 0.1 0.3 0.3 0.4 0.3 0.6 0.2 22.1 0.2 22.5 0.1 1-0.3 0.9 0.2 0.9-10.1 0-6.2 0.1-9.5 0.2-9.6 0.2-0.5 0.9-0.6 4.3-0.5 2.9 0.1 3.2 0.1 3.4 0.4 0.1 0.2 0.2 3.9 0.2 25.1 0 24.6 0 24.8-0.3 25.1-0.3 0.2-0.5 0.3-3.1 0.3-4.2 0-4 0.1-4.3-0.4l-0.4-0.4 0-10.9 0-11-0.4-0.4-0.4-0.4-11.2 0-11.3 0-0.3 0.4c-0.2 0.2-0.4 0.5-0.4 0.6 0 0.2 0 5.2 0 11.1l0 10.8-0.3 0.3c-0.3 0.3-0.5 0.3-3.4 0.3-1.7 0-3.2 0-3.5-0.1zM401.6 892.4c0.4-0.4 0.3-0.6-0.4-2.1-0.2-0.6-0.5-1.4-0.6-1.9-0.1-0.4-0.3-0.9-0.4-1.1-0.1-0.2-0.4-0.7-0.6-1.2-0.1-0.5-0.5-1.6-0.9-2.6-0.3-0.9-0.8-2.2-1.1-2.8-0.2-0.7-0.5-1.6-0.7-2-0.2-0.3-0.5-1.4-0.8-2.3-0.7-1.9-0.9-2.5-1.3-2.7-0.4-0.2-0.7 0.3-1.3 2.1-0.3 0.9-0.8 2.3-1.1 3.1-0.3 0.8-0.6 1.8-0.8 2.3-0.1 0.5-0.3 1.2-0.5 1.5-0.2 0.3-0.5 1.2-0.7 2-0.3 0.8-0.8 2.1-1.1 2.9-1.6 4.4-1.6 4.3-1.2 4.7l0.3 0.4 6.5 0c6.3 0 6.4-0.1 6.7-0.3zM175.1 885.9c2.2-0.2 4.2-0.9 5.3-1.8 0.9-0.8 1.8-2.2 2-3.2 0.3-1.1 0.4-3.1 0.2-4.1-0.3-1.9-1.5-3.9-3.1-4.8-0.9-0.5-3-1-5.5-1.3-1.8-0.2-3.4-0.2-8.5-0.2-6.9 0.1-6.9 0.1-7.2 0.8-0.2 0.5-0.2 13.8 0 14.2 0.1 0.1 0.3 0.3 0.5 0.4 0.4 0.1 14.5 0.1 16.3 0zM459.6 885.7c1.4-0.3 2.8-1 3.7-1.6 0.6-0.5 0.8-0.8 1.4-1.9l0.6-1.3 0-2.3c0-2.7-0.1-3.3-0.9-4.7-0.6-0.8-0.8-1.1-1.8-1.7-1.6-1-2.7-1.2-7.4-1.6-1.3-0.1-12.6-0.1-13.4 0-0.1 0-0.2 0.2-0.3 0.4-0.2 0.3-0.2 1.2-0.2 7.3 0 6.9 0 7.3 0.4 7.6 0.1 0.1 4 0.1 8.6 0.1 7-0.1 8.6-0.1 9.3-0.3zM0 935.6l742.6 0 0 7.8-742.6 0 0-7.8zM654 999.8c-0.2-0.1-0.5-0.4-0.7-0.6l-0.3-0.4 0-0.9c0-0.6 0.1-1.1 0.1-1.3 0.2-0.3 0.9-0.5 1.7-0.5 0.3 0 0.8-0.1 1.1-0.3l0.5-0.2 0.7-1.2c0.9-1.3 1.2-2.1 1-2.9 0-0.3-0.4-1.4-0.8-2.5-0.4-1-0.9-2.4-1.1-3-0.2-0.7-0.5-1.4-0.6-1.6-0.1-0.2-0.4-0.9-0.6-1.6-0.2-0.6-0.7-1.8-1-2.7-0.3-0.8-0.8-2.2-1.1-2.9-0.2-0.8-0.6-1.7-0.7-2-0.2-0.3-0.3-0.7-0.4-0.9l-0.1-0.4 0.4-0.4 0.3-0.4 1.2 0 1.3-0.1 0.5 0.2c0.3 0.1 0.6 0.4 0.8 0.6 0.2 0.4 1.6 4.3 2.1 5.9 0.2 1.1 1.1 3.4 1.5 4.1 0.2 0.5 0.7 0.6 1 0.2 0.2-0.2 0.5-1 0.8-1.7 0.3-0.8 0.6-1.5 0.6-1.6 0.1-0.2 0.3-0.8 0.5-1.5 0.2-0.6 0.4-1.5 0.6-1.9 0.2-0.4 0.5-1.3 0.7-2l0.4-1.4 0.3-0.3 0.3-0.3 1.1-0.1c1.1-0.2 2-0.1 2.5 0.2l0.3 0.2 0 0.4c0 0.2-0.2 0.8-0.4 1.2-0.2 0.5-0.3 0.9-0.3 1 0 0.2-0.5 1.4-1.7 4.4-0.2 0.7-0.5 1.4-0.5 1.6-0.1 0.4-1 2.6-1.5 3.8-0.2 0.6-0.6 1.5-0.7 2.1-0.2 0.5-0.6 1.6-0.9 2.3-0.3 0.8-0.7 2-1 2.7-0.2 0.7-0.7 1.9-1 2.6l-0.6 1.3-0.9 1-0.9 1-0.8 0.5-0.9 0.4-1.2 0.1-1.1 0-0.5-0.2zM115.9 992.7c-0.9-0.2-2.8-1-3.5-1.4-2.4-1.7-4.1-5.8-3.8-9.6l0.1-1.3 0.4-1.4c0.8-2.5 1.3-3.3 3-4.7 1.3-1 1.3-1 3.1-1.4 1.7-0.4 3-0.4 4.8 0l1.4 0.3 0.7 0.4c0.4 0.2 1.2 0.8 1.7 1.3l1 0.9 0.6 1.4 0.7 1.4 0.2 1.3c0.3 1.5 0.3 2.9 0.1 3.4-0.1 0.2-0.3 0.5-0.5 0.6l-0.3 0.2-5.7 0-5.7 0-0.4 0.2c-0.2 0.2-0.4 0.5-0.4 0.7-0.1 0.4 0.6 1.8 1.1 2.5 0.5 0.5 1.8 1.2 2.8 1.4l0.8 0.2 0.9-0.3c1.2-0.3 2-0.8 2.6-1.7 0.2-0.3 0.5-0.8 0.6-1l0.2-0.2 1.2-0.1 1.2-0.1 0.5 0.2 0.5 0.2 0.2 0.5c0.2 0.6 0.1 1-0.6 2.3l-0.6 1.1-0.7 0.7c-1 0.8-2.5 1.6-3.9 1.9-1.2 0.2-3.3 0.3-4.3 0.1zM229.4 992.6c-1.8-0.4-3.5-1.1-4.6-1.9-1-0.8-1.3-1.2-2.1-2.7-1.6-3-1.2-4.4 1.2-4.4l0.9 0 0.3 0.2c0.6 0.4 0.8 0.8 1.2 1.7l0.4 1 0.7 0.7c0.4 0.4 0.9 0.8 1.2 0.9 0.8 0.4 3 0.8 4.2 0.8l1.2 0 1.2-0.3 1.2-0.4 0.7-0.7 0.6-0.7 0.2-0.6c0.5-2-0.5-3.7-2.7-4.3-0.6-0.2-1.5-0.5-2.1-0.7-0.6-0.1-1.6-0.4-2.2-0.5-1.4-0.2-4.2-1.2-4.9-1.7-1-0.5-2.4-1.9-2.8-2.6-1-1.8-1-4.2 0-6.1 0.5-1 1.5-2.2 2.2-2.6 0.3-0.2 0.8-0.5 1.1-0.7l0.4-0.3 1.6-0.3c2.1-0.5 3.3-0.6 5-0.4 3.2 0.4 4.3 0.9 6.2 2.8l1.2 1.2 0.5 1.3c0.2 0.8 0.4 1.6 0.4 1.9l0 0.5-0.3 0.4-0.3 0.3-0.8 0.2c-1.6 0.3-2.5-0.1-2.9-1.3-0.3-0.8-0.8-1.8-1.2-2.2-0.4-0.5-2.1-1.2-3.2-1.3l-1-0.2-1.1 0.2c-2.3 0.3-3.5 1.1-4 2.4l-0.2 0.7 0.1 0.6 0.1 0.7 0.5 0.5 0.5 0.6 1.3 0.5c0.7 0.2 1.8 0.5 2.5 0.7 1.3 0.2 4.5 1.1 5.8 1.6 1.7 0.6 3.6 2.3 4.2 3.5 0.3 0.6 0.5 1.5 0.7 2.7l0 1-0.2 1.3c-0.4 1.5-0.8 2.1-1.9 3.3-1.1 1.2-1.9 1.7-3.7 2.3l-1.4 0.5-2.3 0.1-2.2 0-1.4-0.2zM286.5 992.7c-0.1 0-0.7-0.2-1.2-0.4l-0.9-0.3-0.9-0.8-0.9-0.7-0.4-0.8c-1.1-2.2-0.8-4.8 0.8-6.6 0.7-0.8 2.4-1.8 3.9-2.2 1.4-0.3 3.8-0.7 4.9-0.7 1 0 1.6-0.2 1.8-0.7 0.4-0.7 0.2-1.4-0.6-2.2-0.6-0.7-1.1-0.9-2.6-0.9l-1.2 0-0.8 0.2-0.8 0.2-1 1-0.9 0.9-0.5 0.2-0.6 0.2-0.8-0.1c-0.4 0-0.9-0.2-1.1-0.3l-0.4-0.3 0-0.6-0.1-0.6 0.4-0.9 0.3-0.8 0.7-0.8c0.9-0.9 1.9-1.4 3.5-1.8l1.1-0.3 2.1 0 2 0 1.1 0.3c1.5 0.4 2.5 0.8 3 1.4 0.3 0.3 0.8 1.1 1.1 1.8l0.7 1.4 0 6.6 0.1 6.6-0.2 0.6-0.1 0.5-0.4 0.3-0.4 0.2-1.2 0-1.2 0-0.8-0.3-0.7-0.3-1.6 0.6-1.7 0.5-1.6 0c-0.9 0-1.7 0-1.9-0.1zM345.1 992.7c-1.9-0.4-3.5-1.3-4.6-2.4-1.5-1.6-2.1-2.7-2.5-4.8l-0.3-1.3 0.2-2.3c0.1-2.6 0.2-2.9 1-4.7l0.6-1.3 0.8-0.8c0.4-0.4 1.1-1 1.5-1.3l0.8-0.5 1.4-0.4 1.4-0.3 1.3 0 1.4 0 1.3 0.3c1.7 0.4 1.9 0.5 3.2 1.7 1.7 1.5 2.8 4 3 6.8l0.1 1.1-0.1 0.6c-0.1 0.4-0.3 0.7-0.5 0.8l-0.3 0.2-5.7 0-5.7 0-0.3 0.1c-0.2 0.1-0.4 0.3-0.5 0.5l-0.1 0.3 0.2 0.8c0.4 1.3 1.1 2.1 2.4 2.7l0.7 0.3 1.3 0 1.4 0 0.6-0.3 0.7-0.3 0.8-1c1-1.4 1.7-1.7 3.1-1.5l0.6 0.1 0.4 0.4 0.3 0.3 0 0.7 0 0.7-0.4 0.8c-0.5 1-1.6 2.2-2.4 2.8-0.3 0.2-1.3 0.6-2.1 0.8l-1.5 0.5-1.5 0c-0.8 0-1.7 0-2-0.1zM402.5 992.7c-0.8-0.2-2.1-0.6-3.1-1.1-1.4-0.7-2.6-2-3.4-3.7l-0.4-0.9-0.1-1.1c-0.1-0.6-0.2-1.4-0.3-1.6l-0.2-0.5 0-8.1 0-8.1 0.2-0.4c0.1-0.2 0.3-0.4 0.6-0.6 0.9-0.3 3.1-0.2 3.4 0.3 0.1 0.1 0.1 4 0.2 8.7l0.1 8.5 0.3 1.2c0.5 1.5 0.9 2 1.8 2.6l0.7 0.6 1.1 0.2c0.6 0.2 1.4 0.3 2.1 0.2l1.1 0 1.2-0.4 1.2-0.3 0.6-0.6c0.7-0.8 1-1.3 1.3-2.6l0.3-1.1 0.1-8.3c0-4.6 0.1-8.5 0.2-8.6 0.2-0.4 1.1-0.6 2.4-0.5l1.1 0 0.3 0.3 0.3 0.3 0 4.5c0.1 2.4 0 6.6-0.1 9.2l-0.1 4.8-0.2 0.8c-0.2 1-1.4 3.2-2 3.7-0.2 0.3-0.8 0.7-1.3 1.1l-1 0.6-1.1 0.4c-0.7 0.2-1.5 0.4-1.9 0.5-0.7 0.2-4.3 0.2-5.4 0zM525.7 992.7c-1.2-0.2-3.2-1.1-4-1.7-0.6-0.6-1.6-1.7-2.2-2.5-0.1-0.2-0.4-1-0.6-1.7l-0.5-1.3 0-2.5-0.1-2.5 0.4-1.3c0.2-0.6 0.5-1.6 0.8-2.2l0.4-0.9 1-1 1-1 1.2-0.6c0.7-0.3 1.6-0.7 2.2-0.8l1-0.3 1.5 0.1c0.9 0.1 1.9 0.3 2.4 0.4 0.9 0.3 2.3 1.1 3.2 1.8l0.6 0.5 0.7 1.4 0.8 1.3 0.3 1.7c0.4 1.7 0.5 3.2 0.2 3.7-0.1 0.1-0.3 0.4-0.6 0.5l-0.4 0.2-5.6 0.1-5.7 0-0.3 0.2c-0.2 0.2-0.3 0.4-0.4 0.5-0.2 0.6 0.4 1.9 1.5 3l0.6 0.5 0.9 0.3c0.5 0.2 1.3 0.3 1.7 0.3l0.8 0 0.7-0.3c1-0.4 1.6-0.9 2.1-1.7 0.6-0.9 1-1.1 2.5-1.1l1.1-0.1 0.3 0.4 0.4 0.3 0 0.6c0 1.3-1.1 3.1-2.4 4.1-0.8 0.6-2.6 1.4-3.8 1.6-0.9 0.2-2.7 0.2-3.7 0zM582 992.7l-0.9-0.1-1.2-0.6-1.2-0.6-0.8-0.8-0.8-0.7-0.4-1c-0.2-0.6-0.4-1.3-0.4-1.6l0-0.6 0.4-0.5 0.4-0.4 0.9-0.1 0.8-0.1 0.5 0.2c0.5 0.3 0.9 0.7 1.5 1.7l0.4 0.7 0.7 0.3 0.7 0.3 1.3 0.1 1.3 0 0.8-0.3c0.5-0.2 1-0.5 1.2-0.7l0.4-0.4 0-0.6 0-0.6-0.3-0.4-0.3-0.4-1.2-0.4c-0.6-0.2-1.8-0.6-2.7-0.9-2.9-0.7-4.4-1.4-5.5-2.5l-0.7-0.8-0.2-0.8-0.1-0.8 0-1.4c0.1-0.8 0.2-1.6 0.3-1.9 0.3-0.6 1.8-2.1 2.6-2.5 0.3-0.2 1-0.4 1.5-0.6l1-0.3 2 0 2.1-0.1 0.8 0.3c0.5 0.1 1.3 0.4 1.7 0.6l0.9 0.4 0.6 0.7c0.7 0.9 1.1 1.6 1.2 2.5l0.1 0.6-0.4 0.4-0.3 0.4-0.6 0.1c-0.4 0-1.1 0-1.5-0.1l-0.8-0.1-0.7-0.7c-0.4-0.4-1-0.9-1.2-1l-0.5-0.3-1.4 0-1.3 0-0.6 0.4c-1 0.5-1.3 1.5-0.7 2.2l0.4 0.4 1.1 0.3c0.6 0.2 1.6 0.5 2.3 0.8 0.7 0.2 1.4 0.4 1.5 0.4 0.1 0 0.9 0.3 1.8 0.6l1.5 0.7 0.7 0.6c1.4 1.4 1.8 3.6 1.1 5.8-0.3 0.6-0.5 1-1.4 2.1l-0.8 0.9-1.1 0.5c-1.7 0.8-3.8 1-6.5 0.7zM74.9 992.3c-0.2-0.1-0.6-0.3-0.8-0.5l-0.3-0.4 0-12.1-0.1-12 0.4-0.4 0.3-0.4 1.3 0c1.4 0 2.1 0.2 2.3 0.6 0.1 0.1 0.1 2.1 0.2 4.4l0 4.2 0.2 0.4c0.2 0.4 0.5 0.5 1.1 0.3 0.2-0.1 2.4-2.2 4.8-4.7 2.5-2.5 4.7-4.7 5-4.9l0.5-0.3 1.8 0 1.7-0.1 0.6 0.2c0.3 0.1 0.6 0.3 0.6 0.4l0 0.3-4.4 4.4c-2.5 2.5-4.6 4.6-4.8 4.8-0.5 0.9-0.2 1.7 2 4.5 0.3 0.3 1 1.2 1.5 1.9 0.4 0.7 1.4 1.9 2 2.7 0.6 0.8 1.4 1.8 1.7 2.4 0.4 0.5 0.9 1.3 1.3 1.7 0.6 0.8 1 1.7 0.8 2.1-0.2 0.4-0.8 0.5-2.5 0.4l-1.6 0-0.5-0.3c-0.5-0.4-2.8-3.3-4.9-6.4-2.1-3.1-3-4.3-3.5-4.4l-0.3-0.2-0.5 0.1c-0.6 0.2-2.1 1.9-2.5 2.7l-0.2 0.6 0 3.4 0 3.4-0.2 0.4-0.2 0.5-0.5 0.1c-0.7 0.2-1.8 0.3-2.3 0.2zM467.8 992.3c-0.7-0.1-0.9-0.3-1.3-0.9l-0.2-0.5 0-1.9c0-1 0-4.9 0-8.6l0.1-6.7 0.3-0.2 0.3-0.3 1.1-0.1 1.2-0.1 0.5 0.2c0.3 0.1 0.6 0.3 0.6 0.4l0.2 0.3 0 8.6 0 8.6-0.2 0.5c-0.1 0.3-0.3 0.5-0.3 0.6-0.3 0.1-1.7 0.2-2.3 0.1zM143.7 992.1c-0.2-0.1-0.5-0.4-0.6-0.6l-0.2-0.4-0.1-8.3 0-8.2 0.2-0.6 0.1-0.6 0.5-0.2c0.3-0.1 0.9-0.2 1.4-0.2l1 0 0.9 0.3 0.9 0.3 1.3-0.4 1.4-0.5 1.3-0.1c1.6 0 2.6 0.2 3.8 0.7l0.9 0.5 0.5 0.7c0.9 1.1 1 1.3 1.3 2.6l0.3 1.2 0 6.1 0.1 6.2-0.2 0.5-0.1 0.6-0.5 0.3-0.4 0.3-1 0c-1.2 0-1.6-0.2-1.9-0.7l-0.2-0.4-0.1-6.4-0.1-6.4-0.1-0.4c-0.5-1-1.4-1.6-2.6-1.6-0.9 0-1.6 0.3-2.7 1.1l-0.9 0.7-0.3 0.6-0.4 0.6 0 6.1-0.1 6-0.2 0.3c-0.1 0.2-0.2 0.3-0.4 0.4-0.4 0.1-2.5 0.1-2.8-0.1zM179.4 992.1c-0.8-0.3-1.7-0.9-2.1-1.5-0.7-0.9-0.9-3.5-0.9-8.9l0-3.5-0.2-0.5-0.3-0.6-0.5-0.3c-0.3-0.2-0.7-0.6-0.9-0.9l-0.2-0.4 0-0.7 0-0.7 0.3-0.4c0.1-0.2 0.5-0.5 0.7-0.6 0.3-0.1 0.6-0.3 0.8-0.5l0.3-0.3 0-1.3 0-1.2 0.2-0.4c0.3-0.5 0.8-0.7 2.1-0.7l1.1 0 0.4 0.2c0.5 0.2 0.5 0.4 0.5 1.7 0 1.7 0.4 2.3 1.8 2.5 0.8 0.1 1.1 0.5 1.1 1.3 0.2 1.3-0.4 2.4-1.1 2.4-0.6 0-1.1 0.4-1.4 0.9l-0.2 0.5 0 4.1c0 4.3 0.1 5.2 0.6 5.7l0.3 0.3 0.5 0c0.7 0 1.4 0.4 1.6 0.8 0.3 0.6 0.2 1.6-0.1 2.2l-0.2 0.5-0.6 0.2-0.6 0.3-1.1 0c-0.7 0-1.5-0.1-1.9-0.2zM262 992c-1.2-0.5-1.6-0.7-2-1.6-0.5-1-0.6-2.3-0.7-7.3 0-2.5-0.1-4.7-0.1-5l-0.1-0.4-0.9-0.8c-0.9-0.8-1.2-1.3-1.2-2.1 0-0.8 0.3-1.2 1-1.6 0.4-0.2 0.8-0.5 0.9-0.6l0.3-0.3 0-1.2c0-0.7 0.1-1.4 0.2-1.6l0.2-0.5 0.6-0.2 0.6-0.3 0.9 0.1c0.9 0.1 1.5 0.4 1.7 0.7 0.1 0.1 0.1 0.8 0.2 1.6l0.1 1.5 0.3 0.2c0.1 0.2 0.6 0.3 0.9 0.4 0.8 0.1 1.3 0.4 1.5 0.9l0.2 0.4-0.1 0.8c-0.1 0.9-0.4 1.4-0.9 1.6-0.2 0.1-0.7 0.3-1 0.4l-0.5 0.3-0.3 0.5-0.2 0.5 0 4.3 0.1 4.3 0.2 0.5 0.3 0.6 0.7 0.2c0.4 0.1 0.9 0.2 1.1 0.3 0.2 0 0.5 0.2 0.7 0.4l0.3 0.4 0 0.7c0 0.9-0.3 1.5-0.8 1.8l-0.4 0.3-1.4 0-1.4 0.1-1-0.3zM319.2 992c-0.5-0.2-1.2-0.4-1.4-0.5-0.5-0.2-1.2-1.3-1.4-2.1l-0.2-0.6-0.1-5.5-0.1-5.6-0.1-0.3c-0.1-0.1-0.5-0.4-0.8-0.5-0.3-0.1-0.7-0.3-0.8-0.5l-0.3-0.4-0.1-0.9-0.1-0.9 0.2-0.5 0.3-0.5 0.4-0.1c1.2-0.3 1.4-0.5 1.4-2.1 0-0.7 0.1-1.4 0.2-1.7l0.2-0.5 0.4-0.1c0.2 0 0.9 0 1.7 0l1.3 0 0.3 0.4 0.3 0.3 0 1.2c0 1.3 0.2 2.1 0.5 2.3 0.1 0 0.6 0.1 1 0.2l0.8 0.1 0.3 0.3 0.3 0.4 0 0.7c0 0.8-0.4 1.8-0.7 2-0.1 0.1-0.5 0.2-0.9 0.3l-0.7 0.1-0.3 0.4-0.3 0.4 0 4.9 0 4.8 0.4 0.3 0.3 0.4 0.9 0.1c0.4 0.1 0.9 0.2 1 0.3 0.9 0.2 0.9 2.6 0 3.3l-0.3 0.2-1.3 0.1-1.3 0.1-1-0.3zM433.9 992.1c-0.2-0.1-0.4-0.4-0.5-0.6l-0.2-0.4 0-8.6 0-8.6 0.2-0.3c0.3-0.3 0.9-0.5 2.4-0.5l1.1 0 0.5 0.3c0.6 0.3 1 0.3 2-0.2 0.4-0.2 1.2-0.4 1.6-0.5l0.9-0.2 1.3 0.1c0.6 0.1 1.6 0.3 2.1 0.4l0.9 0.3 0.8 0.8c0.4 0.4 0.9 0.9 1.1 1.2l0.3 0.6 0.3 1.3 0.3 1.4 0.1 5.7c0 3.1 0 6-0.1 6.4l-0.1 0.7-0.3 0.4-0.3 0.4-1.2 0.1-1.3 0-0.3-0.2c-0.2-0.1-0.5-0.3-0.6-0.6l-0.2-0.3 0-5.4c0-5.8-0.1-7.4-0.5-8.2l-0.3-0.6-0.5-0.3-0.6-0.2-1 0-1.1 0-0.5 0.3c-0.3 0.2-1 0.6-1.4 0.9l-0.8 0.6-0.2 0.5-0.2 0.6 0 5.5c0 3-0.1 5.8-0.2 6.1l-0.1 0.6-0.3 0.4-0.4 0.3-1.2 0c-0.6 0-1.3-0.1-1.5-0.2zM493.2 991.9c-0.5-0.4-1-1.4-1.5-3.1-0.2-0.7-0.5-1.5-0.7-1.8-0.2-0.4-0.5-1.1-0.7-1.6-0.9-2.6-1.5-4.3-2.1-5.9-0.4-1-0.8-2.1-0.9-2.6-0.2-0.5-0.5-1.2-0.7-1.7-0.5-0.9-0.5-1.4-0.2-1.7 0.4-0.4 1.1-0.5 2.4-0.4l1 0 0.4 0.3c0.4 0.3 0.7 0.9 1.2 2.7 0.2 0.6 0.5 1.5 0.7 1.9 0.2 0.5 0.5 1.3 0.6 1.8 0.1 0.5 0.4 1.4 0.6 2 0.2 0.5 0.5 1.3 0.7 1.7l0.2 0.8 0.3 0c0.3 0.1 0.9-0.2 1.1-0.6 0.1-0.2 0.3-0.8 0.4-1.4 0.2-0.6 0.4-1.4 0.6-1.7 0.1-0.3 0.4-1.1 0.6-1.7 0.6-2.1 1.6-5 1.9-5.3 0.6-0.6 2.7-0.7 3.7-0.3 0.2 0.1 0.4 0.4 0.5 0.6l0 0.3-0.5 1.4c-0.9 2.6-1.6 4.5-2.1 5.7-0.8 2.1-1.3 3.5-1.3 3.7 0 0.1-0.2 0.5-0.4 1-0.2 0.4-0.5 1.2-0.8 1.8-0.2 0.7-0.6 1.8-0.9 2.6l-0.5 1.4-0.5 0.2-0.5 0.3-1.1 0-1.1 0-0.4-0.4zM552.8 992.1c-0.2-0.1-0.4-0.4-0.6-0.6l-0.2-0.5 0-8.5 0-8.5 0.2-0.3c0.3-0.6 2.2-0.9 3.3-0.5 0.9 0.3 1.5 0.3 2.7-0.2 0.6-0.2 1.4-0.4 1.9-0.5l0.8-0.1 0.5 0.2c0.2 0.1 0.6 0.3 0.7 0.5l0.2 0.4 0 1.1 0.1 1.1-0.4 0.3-0.3 0.4-1.3 0-1.3 0-0.6 0.3c-0.9 0.4-1.5 1-1.9 1.6l-0.3 0.6-0.1 1.3c0 0.7-0.1 3.5-0.1 6.1l0 4.8-0.2 0.5c-0.1 0.2-0.3 0.4-0.5 0.5-0.3 0.2-2.2 0.2-2.6 0zM609.4 992.1c-0.2-0.2-0.4-0.5-0.5-0.8l-0.1-0.5 0-8.5 0-8.5 0.2-0.3c0.2-0.1 0.5-0.3 0.7-0.3 0.6-0.2 2.6 0 3 0.2l0.2 0.2 0 8.6c0.1 4.7 0.1 8.8 0 9.1 0 0.2-0.2 0.5-0.4 0.7l-0.2 0.3-1.3 0-1.3 0-0.3-0.2zM633.7 992c-1.1-0.4-1.8-0.9-2.2-1.6l-0.4-0.6-0.2-1.1c0-0.6-0.1-3.3-0.1-5.9l-0.1-4.8-0.2-0.4-0.2-0.5-0.6-0.2-0.6-0.2-0.3-0.4-0.2-0.5 0-1.1 0-1 0.3-0.3c0.2-0.2 0.5-0.4 0.8-0.4l0.4 0 0.3-0.3 0.3-0.3 0.1-1.6 0.1-1.6 0.2-0.3 0.3-0.2 1.6 0 1.6 0 0.3 0.4 0.3 0.3 0 1.3c0 1.9 0.1 2.2 1.5 2.4 0.3 0.1 0.7 0.2 0.9 0.4l0.4 0.3 0 0.8c0 1-0.3 1.7-0.7 1.9-0.2 0.1-0.6 0.2-0.9 0.3l-0.6 0.1-0.3 0.4-0.3 0.4 0 4.2c0 2.4 0 4.6 0 5l0.1 0.8 0.3 0.3 0.3 0.3 1 0.1 0.9 0.1 0.3 0.3 0.3 0.4 0 0.9c0 1.1-0.2 1.5-0.6 1.8l-0.4 0.3-1.4 0-1.5 0.1-0.8-0.3zM290.7 988.7c0.4-0.2 1.1-0.4 1.5-0.6 1.3-0.7 1.7-1.3 1.7-2.6 0-1-0.1-1.4-0.6-1.7l-0.3-0.2-1.3-0.1-1.4 0-1.1 0.3c-1.5 0.4-1.9 0.6-2.5 1.3-0.6 0.7-0.7 1.3-0.5 2.1l0.1 0.6 0.5 0.4c0.9 0.7 2.4 0.9 3.9 0.5zM120.7 980.2c0.5-0.2 0.8-0.6 0.8-1.1l0-0.4-0.5-0.6c-0.8-1.1-2.1-1.7-3.6-1.7-1.3 0-2.7 0.8-3.2 1.9-0.4 0.6-0.4 1.1 0 1.5l0.2 0.3 2.5 0.1c1.3 0 2.6 0.1 2.9 0.1 0.3 0 0.7 0 0.9-0.1zM350.3 979.7l0.2-0.3 0-0.5c-0.2-1-1.3-2-2.7-2.4l-0.8-0.3-0.7 0.1c-0.7 0.1-1.7 0.6-2.6 1.4l-0.6 0.5-0.2 0.6-0.2 0.6 0.3 0.3 0.3 0.4 2.9 0.1c3.2 0.1 3.7 0 4.1-0.5zM530.6 980l0.4-0.2 0-0.5c0-0.8-0.4-1.5-1.2-2.1-0.8-0.6-1.7-0.9-3.1-0.8l-1 0.1-0.5 0.3c-0.8 0.6-1.3 1-1.6 1.6-0.3 0.7-0.3 1 0 1.4l0.3 0.3 1.3 0.1c0.6 0.1 2.1 0.1 3.2 0l1.9 0 0.3-0.2zM467 970.6c-0.2 0-0.4-0.2-0.5-0.4l-0.2-0.3 0-1.3c0-0.7 0.1-1.4 0.2-1.6 0.2-0.4 1-0.6 2.4-0.5l1.1 0 0.3 0.3 0.3 0.3 0 1.4 0 1.4-0.2 0.3c-0.1 0.1-0.3 0.4-0.5 0.4-0.4 0.2-2.5 0.2-2.9 0zM609.5 970.6c-0.6-0.3-0.7-0.6-0.7-2.1l0-1.4 0.2-0.2c0.4-0.4 1.3-0.5 2.5-0.4l1 0 0.2 0.3 0.3 0.4 0 1.2c0 1.4-0.2 2-0.7 2.2-0.5 0.2-2.2 0.2-2.8 0z"/><path fill="#EFAB00" fill-rule="evenodd" d="M52.8 318.5l84.9-84.9 46.7 46.6 159.5 0 0.4 0.3 27.1 149.3 26.9-149.3 0.4-0.3 159.5 0 46.7-46.6 84.9 84.9-162.7 162.8-28.1-28.1 134.6-134.7-28.8-28.8-30.2 30.2-143.3 0-60.1 337.7-59.9-337.7-143.3 0-30.2-30.2-28.8 28.8 134.7 134.7-28.1 28.1-162.8-162.8zM155.3 215.9l216-215.9 215.8 215.8-431.8 0.1zM320.5 134.9l-28.1 0.1-41.2 41.1 69.3 0 0-41.2zM398 176.1l-20.6-20.6 20.5-20.5-37.7 0 0 41.1 37.8 0zM491.3 176.1l-39.2-39.1-18.6 18.5 20.7 20.6 37.1 0zM410.1 94.9l-38.8-38.8-39.2 39.2 77.7 0 0.3-0.4z"/></svg>
