<svg xmlns="http://www.w3.org/2000/svg" width="1920" height="64" viewBox="0 0 1920 64">
  <!-- ATR hazard-stripe band: 45deg stripes, stripe width 64px (=2x band height 64px), period 181.02px, fg #EFAB00 on bg #FFFFFF -->
  <rect width="1920" height="64" fill="#FFFFFF"/>
  <path fill="#EFAB00" d="M-181.019,0.000 L-90.510,0.000 L-154.510,64.000 L-245.019,64.000 Z M0.000,0.000 L90.510,0.000 L26.510,64.000 L-64.000,64.000 Z M181.019,0.000 L271.529,0.000 L207.529,64.000 L117.019,64.000 Z M362.039,0.000 L452.548,0.000 L388.548,64.000 L298.039,64.000 Z M543.058,0.000 L633.568,0.000 L569.568,64.000 L479.058,64.000 Z M724.077,0.000 L814.587,0.000 L750.587,64.000 L660.077,64.000 Z M905.097,0.000 L995.606,0.000 L931.606,64.000 L841.097,64.000 Z M1086.116,0.000 L1176.626,0.000 L1112.626,64.000 L1022.116,64.000 Z M1267.135,0.000 L1357.645,0.000 L1293.645,64.000 L1203.135,64.000 Z M1448.155,0.000 L1538.664,0.000 L1474.664,64.000 L1384.155,64.000 Z M1629.174,0.000 L1719.684,0.000 L1655.684,64.000 L1565.174,64.000 Z M1810.193,0.000 L1900.703,0.000 L1836.703,64.000 L1746.193,64.000 Z M1991.213,0.000 L2081.722,0.000 L2017.722,64.000 L1927.213,64.000 Z M2172.232,0.000 L2262.742,0.000 L2198.742,64.000 L2108.232,64.000 Z"/>
</svg>
