<svg xmlns="http://www.w3.org/2000/svg" width="1920" height="96" viewBox="0 0 1920 96">
  <!-- ATR hazard-stripe band: 45deg stripes, stripe width 192px (=2x band height 96px), period 543.06px, fg #003976 on bg #EFAB00 -->
  <rect width="1920" height="96" fill="#EFAB00"/>
  <path fill="#003976" d="M-543.058,0.000 L-271.529,0.000 L-367.529,96.000 L-639.058,96.000 Z M0.000,0.000 L271.529,0.000 L175.529,96.000 L-96.000,96.000 Z M543.058,0.000 L814.587,0.000 L718.587,96.000 L447.058,96.000 Z M1086.116,0.000 L1357.645,0.000 L1261.645,96.000 L990.116,96.000 Z M1629.174,0.000 L1900.703,0.000 L1804.703,96.000 L1533.174,96.000 Z M2172.232,0.000 L2443.761,0.000 L2347.761,96.000 L2076.232,96.000 Z M2715.290,0.000 L2986.819,0.000 L2890.819,96.000 L2619.290,96.000 Z"/>
</svg>
