<?xml version="1.0" encoding="UTF-8"?><svg color="#003976" xmlns="http://www.w3.org/2000/svg" viewBox="0 0 1024 1024" width="512" height="512">
<path d="M0,0 L85,0 L85,2 L89,4 L106,21 L114,28 L139,53 L147,60 L175,88 L176,92 L176,122 L175,152 L169,159 L167,160 L83,160 L68,159 L63,156 L58,152 L52,148 L48,143 L40,138 L37,136 L36,231 L33,236 L29,240 L21,240 L20,242 L24,244 L35,257 L37,260 L37,273 L34,280 L30,289 L27,300 L23,309 L20,319 L16,327 L15,332 L13,332 L13,338 L11,338 L10,345 L6,354 L4,360 L5,365 L13,373 L20,381 L25,385 L32,393 L45,408 L77,440 L77,442 L79,442 L79,444 L81,444 L90,455 L95,460 L95,462 L97,462 L97,464 L99,464 L99,466 L101,466 L101,468 L103,468 L103,470 L105,470 L105,472 L107,472 L107,474 L109,474 L109,476 L111,476 L111,478 L113,478 L113,480 L115,480 L115,482 L117,482 L117,546 L111,552 L50,552 L44,546 L44,520 L46,514 L46,507 L31,491 L23,483 L16,475 L15,472 L13,472 L6,464 L3,462 L3,460 L1,460 L-6,452 L-11,447 L-19,439 L-24,434 L-35,422 L-42,414 L-73,383 L-74,381 L-74,369 L-71,362 L-68,355 L-65,342 L-63,339 L-60,327 L-58,325 L-55,313 L-52,305 L-48,295 L-45,285 L-42,278 L-40,272 L-40,268 L-49,257 L-54,252 L-57,251 L-59,255 L-66,262 L-73,270 L-80,277 L-87,286 L-89,286 L-89,288 L-91,288 L-91,290 L-96,294 L-97,296 L-99,296 L-101,300 L-107,307 L-114,315 L-125,326 L-132,335 L-148,351 L-152,356 L-150,363 L-147,366 L-144,371 L-141,376 L-141,378 L-139,378 L-139,380 L-137,380 L-135,385 L-132,388 L-129,393 L-125,398 L-120,407 L-115,414 L-115,416 L-113,416 L-107,426 L-101,434 L-98,439 L-93,446 L-93,448 L-91,448 L-83,461 L-76,471 L-67,485 L-67,497 L-68,502 L-69,518 L-71,525 L-73,543 L-76,548 L-80,552 L-146,552 L-152,547 L-153,544 L-152,529 L-150,527 L-148,520 L-144,508 L-142,508 L-142,500 L-147,493 L-151,486 L-154,481 L-157,478 L-159,472 L-161,472 L-163,467 L-170,457 L-174,451 L-180,442 L-181,438 L-183,438 L-187,431 L-197,416 L-203,407 L-206,402 L-210,395 L-212,394 L-216,387 L-224,376 L-229,369 L-232,363 L-232,350 L-227,342 L-219,333 L-212,325 L-206,316 L-201,310 L-194,302 L-187,292 L-185,292 L-185,290 L-183,290 L-183,288 L-181,288 L-180,284 L-172,274 L-165,266 L-157,255 L-152,250 L-149,245 L-146,242 L-147,240 L-348,240 L-346,244 L-342,250 L-342,252 L-340,252 L-335,260 L-335,273 L-337,277 L-339,280 L-341,286 L-343,286 L-344,291 L-347,299 L-351,306 L-353,312 L-358,322 L-361,329 L-362,334 L-364,334 L-365,339 L-368,344 L-372,355 L-374,360 L-371,361 L-364,371 L-358,378 L-357,382 L-355,382 L-355,384 L-353,384 L-347,393 L-340,401 L-332,411 L-328,417 L-323,422 L-320,427 L-313,435 L-313,438 L-311,438 L-311,440 L-309,440 L-302,450 L-296,458 L-289,466 L-286,471 L-279,479 L-277,482 L-277,546 L-283,552 L-349,552 L-355,546 L-355,530 L-353,527 L-352,520 L-351,519 L-349,510 L-348,509 L-349,502 L-357,493 L-361,486 L-365,482 L-372,472 L-375,468 L-375,466 L-377,466 L-377,464 L-379,464 L-385,455 L-392,447 L-396,441 L-400,437 L-406,429 L-413,420 L-415,416 L-417,416 L-423,407 L-429,400 L-437,390 L-444,381 L-451,372 L-451,355 L-448,348 L-442,336 L-439,328 L-436,322 L-431,311 L-425,295 L-422,288 L-420,288 L-419,283 L-417,278 L-415,278 L-414,273 L-412,268 L-412,264 L-418,255 L-420,254 L-420,252 L-424,253 L-431,262 L-450,281 L-459,292 L-468,302 L-473,307 L-478,312 L-480,312 L-482,316 L-494,329 L-501,337 L-510,346 L-517,354 L-521,360 L-515,372 L-505,391 L-499,400 L-499,404 L-497,404 L-493,414 L-487,424 L-481,436 L-480,440 L-478,440 L-472,454 L-469,460 L-463,470 L-456,484 L-456,507 L-458,511 L-459,523 L-460,524 L-461,535 L-462,536 L-463,545 L-470,552 L-537,552 L-543,546 L-543,533 L-539,524 L-538,520 L-536,520 L-536,515 L-533,508 L-531,508 L-531,502 L-529,498 L-533,490 L-539,478 L-539,476 L-541,476 L-544,468 L-547,462 L-553,452 L-557,445 L-558,441 L-560,440 L-562,435 L-563,430 L-565,430 L-565,426 L-567,426 L-570,419 L-577,408 L-577,404 L-579,404 L-582,397 L-590,383 L-591,378 L-593,378 L-598,368 L-601,362 L-601,350 L-594,342 L-589,334 L-584,329 L-576,319 L-568,310 L-561,302 L-553,291 L-547,284 L-540,276 L-533,266 L-531,266 L-529,262 L-518,249 L-513,243 L-512,240 L-537,240 L-543,234 L-543,122 L-538,117 L-530,110 L-522,103 L-511,94 L-509,94 L-509,92 L-507,92 L-507,90 L-497,83 L-490,77 L-479,68 L-471,62 L-55,62 L-44,70 L-41,70 L-41,59 L-36,52 L-33,46 L-31,46 L-30,42 L-23,31 L-19,25 L-12,15 L-9,10 L-7,10 L-5,5 Z " fill="currentColor" transform="translate(723,234)"/>
</svg>
